<?xml version="1.0" encoding="UTF-8" standalone="no"?>
<!-- Created with Inkscape (http://www.inkscape.org/) -->

<svg
   width="772"
   height="192.5"
   viewBox="0 0 204.25833 50.932293"
   version="1.1"
   id="svg1323"
   inkscape:export-filename="/home/angel/LearningHTML/Emmaline_GirlScouts/contactheader.png"
   inkscape:export-xdpi="112.8"
   inkscape:export-ydpi="112.8"
   inkscape:version="1.1.2 (0a00cf5339, 2022-02-04)"
   sodipodi:docname="contactheader.svg"
   xmlns:inkscape="http://www.inkscape.org/namespaces/inkscape"
   xmlns:sodipodi="http://sodipodi.sourceforge.net/DTD/sodipodi-0.dtd"
   xmlns="http://www.w3.org/2000/svg"
   xmlns:svg="http://www.w3.org/2000/svg">
  <sodipodi:namedview
     id="namedview1325"
     pagecolor="#0ed5c9"
     bordercolor="#666666"
     borderopacity="1.0"
     inkscape:pageshadow="2"
     inkscape:pageopacity="1"
     inkscape:pagecheckerboard="0"
     inkscape:document-units="mm"
     showgrid="false"
     units="px"
     inkscape:zoom="0.75187991"
     inkscape:cx="595.83983"
     inkscape:cy="348.4599"
     inkscape:window-width="1551"
     inkscape:window-height="773"
     inkscape:window-x="2117"
     inkscape:window-y="77"
     inkscape:window-maximized="0"
     inkscape:current-layer="layer1" />
  <defs
     id="defs1320" />
  <g
     inkscape:label="Layer 1"
     inkscape:groupmode="layer"
     id="layer1">
    <g
       id="g32701">
      <g
         id="g68660"
         transform="matrix(0.23088351,0,0,0.23088351,-13.27178,-26.491341)">
        <g
           id="g63274"
           transform="matrix(0.73690477,0,0,0.74251655,-32.180815,21.412019)">
          <g
             id="g52992"
             style="fill:#ffeeaa"
             transform="rotate(-10.171126,-289.32886,1662.4391)">
            <path
               id="path52492"
               style="stroke-width:5.28378"
               inkscape:transform-center-x="-6.3087024"
               inkscape:transform-center-y="-2.5512835"
               transform="matrix(0.9375,0,0,0.9375,92.593894,71.478376)"
               d="m 539.50266,442.80217 -35.82748,-99.86847 -76.46239,74.26874 83.90926,-64.935 -94.26196,-49.76976 87.68625,59.73643 18.2053,-105.02814 -29.71618,101.85415 105.51345,-15.14121 -106.05185,3.21289 z" />
            <path
               id="path52905"
               style="stroke-width:5.28378"
               inkscape:transform-center-x="-0.53200018"
               inkscape:transform-center-y="8.2631184"
               transform="matrix(0.86872366,0.35245632,-0.35245632,0.86872366,248.10398,-82.459401)"
               d="m 539.50266,442.80217 -35.82748,-99.86847 -76.46239,74.26874 83.90926,-64.935 -94.26196,-49.76976 87.68625,59.73643 18.2053,-105.02814 -29.71618,101.85415 105.51345,-15.14121 -106.05185,3.21289 z" />
            <path
               id="path52987"
               style="stroke-width:5.28378"
               inkscape:transform-center-x="4.6730079"
               inkscape:transform-center-y="-4.2066349"
               transform="matrix(0.6066069,0.71479669,-0.71479669,0.6066069,506.98874,-165.9385)"
               d="m 539.50266,442.80217 -35.82748,-99.86847 -76.46239,74.26874 83.90926,-64.935 -94.26196,-49.76976 87.68625,59.73643 18.2053,-105.02814 -29.71618,101.85415 105.51345,-15.14121 -106.05185,3.21289 z" />
          </g>
          <g
             id="g52192"
             transform="matrix(0.71624504,0,0,0.69877908,116.51107,74.048279)">
            <g
               id="g1550"
               transform="matrix(0.19294671,0,0,0.20657925,221.1239,174.41476)">
              <path
                 inkscape:connector-curvature="0"
                 id="path51842"
                 d="m 324.87366,229.84814 c -65.98567,0 -119.57843,55.66089 -119.57843,124.19308 0,68.88034 53.59276,124.54121 119.57843,124.54121 h 106.18037 c 65.98653,0 119.91407,-55.66087 119.91407,-124.54121 0,-68.53219 -53.92754,-124.19308 -119.91407,-124.19308 z"
                 style="fill:#008000;fill-opacity:1;fill-rule:evenodd;stroke:none" />
              <path
                 inkscape:connector-curvature="0"
                 id="path51839"
                 d="m 705.38233,467.10256 c 0,-68.18453 -52.92451,-123.1496 -118.24108,-123.1496 h -2.67902 c -65.6509,0 -118.57113,54.96507 -118.57113,123.1496 v 93.23184 c 0,68.18438 52.92023,123.15055 118.57113,123.15055 h 2.67902 c 65.31657,0 118.24108,-54.96617 118.24108,-123.15055 z"
                 style="fill:#008000;fill-opacity:1;fill-rule:evenodd;stroke:none" />
              <path
                 inkscape:connector-curvature="0"
                 id="path51836"
                 d="m 286.68933,467.10256 c 0,-68.18453 -52.9228,-123.1496 -118.57371,-123.1496 h -2.34467 c -65.65091,0 -118.5737,54.96507 -118.5737,123.1496 v 93.23184 c 0,68.18438 52.92279,123.15055 118.5737,123.15055 h 2.34467 c 65.65091,0 118.57371,-54.96617 118.57371,-123.15055 z"
                 style="fill:#008000;fill-opacity:1;fill-rule:evenodd;stroke:none" />
              <path
                 inkscape:connector-curvature="0"
                 id="path51833"
                 d="m 378.13166,270.54999 c -95.46215,0 -172.83643,137.76051 -172.83643,307.87401 0,170.1113 77.37428,307.87353 172.83643,307.87353 95.46216,0 172.83644,-137.76223 172.83644,-307.87353 0,-170.1135 -77.37428,-307.87401 -172.83644,-307.87401 z"
                 style="fill:#008000;fill-opacity:1;fill-rule:evenodd;stroke:none" />
              <path
                 inkscape:connector-curvature="0"
                 id="path51830"
                 d="m 259.55796,343.95296 c -29.8108,0 -54.26273,25.39496 -54.26273,56.70434 v 226.12173 c 0,31.30938 24.45193,56.70592 54.26273,56.70592 h 236.81392 c 30.14215,0 54.59622,-25.39654 54.59622,-56.70592 V 400.6573 c 0,-31.30938 -24.45407,-56.70434 -54.59622,-56.70434 z"
                 style="fill:#008000;fill-opacity:1;fill-rule:evenodd;stroke:none" />
              <path
                 inkscape:connector-curvature="0"
                 id="path51827"
                 d="m 297.07276,255.59126 c -23.78194,0 -43.20889,20.17716 -43.20889,44.87649 v 182.98499 c 0,25.04746 19.42695,44.87649 43.20889,44.87649 h 172.83472 c 23.78109,0 43.21148,-19.82903 43.21148,-44.87649 V 300.46775 c 0,-24.69933 -19.43039,-44.87649 -43.21148,-44.87649 z"
                 style="fill:#008000;fill-opacity:1;fill-rule:evenodd;stroke:none" />
              <path
                 inkscape:connector-curvature="0"
                 id="path51824"
                 d="m 153.0424,391.96032 c -23.78152,0 -43.20889,19.82935 -43.20889,44.87634 v 182.98498 c 0,24.69933 19.42737,44.8765 43.20889,44.8765 h 172.83643 c 23.78152,0 43.2089,-20.17717 43.2089,-44.8765 V 436.83666 c 0,-25.04699 -19.42738,-44.87634 -43.2089,-44.87634 z"
                 style="fill:#008000;fill-opacity:1;fill-rule:evenodd;stroke:none" />
              <path
                 inkscape:connector-curvature="0"
                 id="path51821"
                 d="m 400.57324,389.17743 c -23.78152,0 -43.20889,20.17701 -43.20889,44.87633 v 182.98467 c 0,25.04747 19.42737,44.87728 43.20889,44.87728 h 172.8343 c 23.78538,0 43.21146,-19.82981 43.21146,-44.87728 V 434.05376 c 0,-24.69932 -19.42608,-44.87633 -43.21146,-44.87633 z"
                 style="fill:#008000;fill-opacity:1;fill-rule:evenodd;stroke:none" />
            </g>
            <g
               id="g2180"
               transform="matrix(0.1778222,0,0,0.18932946,226.62885,182.94489)"
               style="fill:#ffffff">
              <path
                 inkscape:connector-curvature="0"
                 id="path51818"
                 d="m 324.87366,229.84814 c -65.98567,0 -119.57843,55.66089 -119.57843,124.19308 0,68.88034 53.59276,124.54121 119.57843,124.54121 h 106.18037 c 65.98653,0 119.91407,-55.66087 119.91407,-124.54121 0,-68.53219 -53.92754,-124.19308 -119.91407,-124.19308 z"
                 style="fill:#ffffff;fill-opacity:1;fill-rule:evenodd;stroke:none" />
              <path
                 inkscape:connector-curvature="0"
                 id="path51815"
                 d="m 705.38233,467.10256 c 0,-68.18453 -52.92451,-123.1496 -118.24108,-123.1496 h -2.67902 c -65.6509,0 -118.57113,54.96507 -118.57113,123.1496 v 93.23184 c 0,68.18438 52.92023,123.15055 118.57113,123.15055 h 2.67902 c 65.31657,0 118.24108,-54.96617 118.24108,-123.15055 z"
                 style="fill:#ffffff;fill-opacity:1;fill-rule:evenodd;stroke:none" />
              <path
                 inkscape:connector-curvature="0"
                 id="path51812"
                 d="m 286.68933,467.10256 c 0,-68.18453 -52.9228,-123.1496 -118.57371,-123.1496 h -2.34467 c -65.65091,0 -118.5737,54.96507 -118.5737,123.1496 v 93.23184 c 0,68.18438 52.92279,123.15055 118.5737,123.15055 h 2.34467 c 65.65091,0 118.57371,-54.96617 118.57371,-123.15055 z"
                 style="fill:#ffffff;fill-opacity:1;fill-rule:evenodd;stroke:none" />
              <path
                 inkscape:connector-curvature="0"
                 id="path51809"
                 d="m 378.13166,270.54999 c -95.46215,0 -172.83643,137.76051 -172.83643,307.87401 0,170.1113 77.37428,307.87353 172.83643,307.87353 95.46216,0 172.83644,-137.76223 172.83644,-307.87353 0,-170.1135 -77.37428,-307.87401 -172.83644,-307.87401 z"
                 style="fill:#ffffff;fill-opacity:1;fill-rule:evenodd;stroke:none" />
              <path
                 inkscape:connector-curvature="0"
                 id="path51806"
                 d="m 259.55796,343.95296 c -29.8108,0 -54.26273,25.39496 -54.26273,56.70434 v 226.12173 c 0,31.30938 24.45193,56.70592 54.26273,56.70592 h 236.81392 c 30.14215,0 54.59622,-25.39654 54.59622,-56.70592 V 400.6573 c 0,-31.30938 -24.45407,-56.70434 -54.59622,-56.70434 z"
                 style="fill:#ffffff;fill-opacity:1;fill-rule:evenodd;stroke:none" />
              <path
                 inkscape:connector-curvature="0"
                 id="path51803"
                 d="m 297.07276,255.59126 c -23.78194,0 -43.20889,20.17716 -43.20889,44.87649 v 182.98499 c 0,25.04746 19.42695,44.87649 43.20889,44.87649 h 172.83472 c 23.78109,0 43.21148,-19.82903 43.21148,-44.87649 V 300.46775 c 0,-24.69933 -19.43039,-44.87649 -43.21148,-44.87649 z"
                 style="fill:#ffffff;fill-opacity:1;fill-rule:evenodd;stroke:none" />
              <path
                 inkscape:connector-curvature="0"
                 id="path51800"
                 d="m 153.0424,391.96032 c -23.78152,0 -43.20889,19.82935 -43.20889,44.87634 v 182.98498 c 0,24.69933 19.42737,44.8765 43.20889,44.8765 h 172.83643 c 23.78152,0 43.2089,-20.17717 43.2089,-44.8765 V 436.83666 c 0,-25.04699 -19.42738,-44.87634 -43.2089,-44.87634 z"
                 style="fill:#ffffff;fill-opacity:1;fill-rule:evenodd;stroke:none" />
              <path
                 inkscape:connector-curvature="0"
                 id="path51797"
                 d="m 400.57324,389.17743 c -23.78152,0 -43.20889,20.17701 -43.20889,44.87633 v 182.98467 c 0,25.04747 19.42737,44.87728 43.20889,44.87728 h 172.8343 c 23.78538,0 43.21146,-19.82981 43.21146,-44.87728 V 434.05376 c 0,-24.69932 -19.42608,-44.87633 -43.21146,-44.87633 z"
                 style="fill:#ffffff;fill-opacity:1;fill-rule:evenodd;stroke:none" />
            </g>
            <g
               id="g52145"
               transform="matrix(0.16770799,0,0,0.17434559,230.61923,190.0943)"
               style="fill:#008000">
              <path
                 inkscape:connector-curvature="0"
                 id="path52129"
                 d="m 324.87366,229.84814 c -65.98567,0 -119.57843,55.66089 -119.57843,124.19308 0,68.88034 53.59276,124.54121 119.57843,124.54121 h 106.18037 c 65.98653,0 119.91407,-55.66087 119.91407,-124.54121 0,-68.53219 -53.92754,-124.19308 -119.91407,-124.19308 z"
                 style="fill:#008000;fill-opacity:1;fill-rule:evenodd;stroke:none" />
              <path
                 inkscape:connector-curvature="0"
                 id="path52131"
                 d="m 705.38233,467.10256 c 0,-68.18453 -52.92451,-123.1496 -118.24108,-123.1496 h -2.67902 c -65.6509,0 -118.57113,54.96507 -118.57113,123.1496 v 93.23184 c 0,68.18438 52.92023,123.15055 118.57113,123.15055 h 2.67902 c 65.31657,0 118.24108,-54.96617 118.24108,-123.15055 z"
                 style="fill:#008000;fill-opacity:1;fill-rule:evenodd;stroke:none" />
              <path
                 inkscape:connector-curvature="0"
                 id="path52133"
                 d="m 286.68933,467.10256 c 0,-68.18453 -52.9228,-123.1496 -118.57371,-123.1496 h -2.34467 c -65.65091,0 -118.5737,54.96507 -118.5737,123.1496 v 93.23184 c 0,68.18438 52.92279,123.15055 118.5737,123.15055 h 2.34467 c 65.65091,0 118.57371,-54.96617 118.57371,-123.15055 z"
                 style="fill:#008000;fill-opacity:1;fill-rule:evenodd;stroke:none" />
              <path
                 inkscape:connector-curvature="0"
                 id="path52135"
                 d="m 378.13166,270.54999 c -95.46215,0 -172.83643,137.76051 -172.83643,307.87401 0,170.1113 77.37428,307.87353 172.83643,307.87353 95.46216,0 172.83644,-137.76223 172.83644,-307.87353 0,-170.1135 -77.37428,-307.87401 -172.83644,-307.87401 z"
                 style="fill:#008000;fill-opacity:1;fill-rule:evenodd;stroke:none" />
              <path
                 inkscape:connector-curvature="0"
                 id="path52137"
                 d="m 259.55796,343.95296 c -29.8108,0 -54.26273,25.39496 -54.26273,56.70434 v 226.12173 c 0,31.30938 24.45193,56.70592 54.26273,56.70592 h 236.81392 c 30.14215,0 54.59622,-25.39654 54.59622,-56.70592 V 400.6573 c 0,-31.30938 -24.45407,-56.70434 -54.59622,-56.70434 z"
                 style="fill:#008000;fill-opacity:1;fill-rule:evenodd;stroke:none" />
              <path
                 inkscape:connector-curvature="0"
                 id="path52139"
                 d="m 297.07276,255.59126 c -23.78194,0 -43.20889,20.17716 -43.20889,44.87649 v 182.98499 c 0,25.04746 19.42695,44.87649 43.20889,44.87649 h 172.83472 c 23.78109,0 43.21148,-19.82903 43.21148,-44.87649 V 300.46775 c 0,-24.69933 -19.43039,-44.87649 -43.21148,-44.87649 z"
                 style="fill:#008000;fill-opacity:1;fill-rule:evenodd;stroke:none" />
              <path
                 inkscape:connector-curvature="0"
                 id="path52141"
                 d="m 153.0424,391.96032 c -23.78152,0 -43.20889,19.82935 -43.20889,44.87634 v 182.98498 c 0,24.69933 19.42737,44.8765 43.20889,44.8765 h 172.83643 c 23.78152,0 43.2089,-20.17717 43.2089,-44.8765 V 436.83666 c 0,-25.04699 -19.42738,-44.87634 -43.2089,-44.87634 z"
                 style="fill:#008000;fill-opacity:1;fill-rule:evenodd;stroke:none" />
              <path
                 inkscape:connector-curvature="0"
                 id="path52143"
                 d="m 400.57324,389.17743 c -23.78152,0 -43.20889,20.17701 -43.20889,44.87633 v 182.98467 c 0,25.04747 19.42737,44.87728 43.20889,44.87728 h 172.8343 c 23.78538,0 43.21146,-19.82981 43.21146,-44.87728 V 434.05376 c 0,-24.69932 -19.42608,-44.87633 -43.21146,-44.87633 z"
                 style="fill:#008000;fill-opacity:1;fill-rule:evenodd;stroke:none" />
            </g>
          </g>
          <g
             aria-label="3758"
             id="text58846"
             style="font-size:26.3588px;line-height:1.25;letter-spacing:0px;word-spacing:0px;fill:#ffffff;stroke-width:0.308893">
            <path
               d="m 304.79543,268.83226 q 1.86622,0.39899 2.90873,1.6603 1.05539,1.26131 1.05539,3.11466 0,2.84439 -1.95632,4.40172 -1.95632,1.55733 -5.56006,1.55733 -1.20983,0 -2.49688,-0.24454 -1.27418,-0.23167 -2.63845,-0.70788 v -2.50975 q 1.08112,0.63066 2.36817,0.95242 1.28705,0.32176 2.68994,0.32176 2.44539,0 3.71957,-0.96529 1.28705,-0.96528 1.28705,-2.80577 0,-1.6989 -1.19695,-2.65132 -1.18409,-0.96529 -3.30772,-0.96529 h -2.23947 v -2.1365 h 2.34243 q 1.91771,0 2.93448,-0.75936 1.01677,-0.77223 1.01677,-2.21373 0,-1.48011 -1.05539,-2.26521 -1.04251,-0.79797 -2.99882,-0.79797 -1.06826,0 -2.29095,0.23167 -1.2227,0.23167 -2.68994,0.72075 v -2.3167 q 1.48011,-0.41185 2.76716,-0.61778 1.29992,-0.20593 2.44539,-0.20593 2.96022,0 4.68487,1.3514 1.72465,1.33854 1.72465,3.62949 0,1.59594 -0.91381,2.7028 -0.9138,1.094 -2.59984,1.51872 z"
               id="path63329" />
            <path
               d="m 313.03255,259.97735 h 12.35569 v 1.10687 l -6.97581,18.1088 h -2.71568 l 6.56396,-17.02768 h -9.22816 z"
               id="path63331" />
            <path
               d="m 330.48496,259.97735 h 10.20631 v 2.18799 h -7.82526 v 4.71061 q 0.5663,-0.19306 1.1326,-0.28315 0.5663,-0.10297 1.13261,-0.10297 3.21762,0 5.09672,1.76326 1.87909,1.76326 1.87909,4.77496 0,3.10179 -1.93058,4.82644 -1.93057,1.71178 -5.44422,1.71178 -1.20983,0 -2.47114,-0.20593 -1.24844,-0.20593 -2.58697,-0.61778 v -2.61272 q 1.15835,0.63066 2.39391,0.93955 1.23557,0.30889 2.61272,0.30889 2.2266,0 3.52652,-1.17121 1.29992,-1.17122 1.29992,-3.17902 0,-2.0078 -1.29992,-3.17902 -1.29992,-1.17121 -3.52652,-1.17121 -1.04251,0 -2.08503,0.23167 -1.02964,0.23167 -2.11076,0.72075 z"
               id="path63333" />
            <path
               d="m 352.78955,270.06783 q -1.85335,0 -2.9216,0.99103 -1.05539,0.99103 -1.05539,2.72855 0,1.73752 1.05539,2.72855 1.06825,0.99103 2.9216,0.99103 1.85335,0 2.92161,-0.99103 1.06825,-1.0039 1.06825,-2.72855 0,-1.73752 -1.06825,-2.72855 -1.05538,-0.99103 -2.92161,-0.99103 z m -2.59984,-1.10686 q -1.67317,-0.41186 -2.61271,-1.55733 -0.92668,-1.14548 -0.92668,-2.7929 0,-2.30382 1.63455,-3.64236 1.64743,-1.33853 4.50468,-1.33853 2.87012,0 4.50468,1.33853 1.63455,1.33854 1.63455,3.64236 0,1.64742 -0.93954,2.7929 -0.92668,1.14547 -2.58698,1.55733 1.8791,0.4376 2.92161,1.71178 1.05538,1.27418 1.05538,3.11466 0,2.7929 -1.71178,4.28588 -1.6989,1.49298 -4.87792,1.49298 -3.17901,0 -4.89079,-1.49298 -1.69891,-1.49298 -1.69891,-4.28588 0,-1.84048 1.05538,-3.11466 1.05538,-1.27418 2.93448,-1.71178 z m -0.95242,-4.10569 q 0,1.49298 0.92668,2.32956 0.93954,0.83658 2.62558,0.83658 1.67317,0 2.61271,-0.83658 0.95242,-0.83658 0.95242,-2.32956 0,-1.49298 -0.95242,-2.32956 -0.93954,-0.83659 -2.61271,-0.83659 -1.68604,0 -2.62558,0.83659 -0.92668,0.83658 -0.92668,2.32956 z"
               id="path63335" />
          </g>
        </g>
        <g
           aria-label="Girl"
           id="text28326"
           style="font-size:44.5392px;line-height:1.25;letter-spacing:0px;word-spacing:0px;stroke-width:0.521944">
          <path
             d="m 111.56663,211.77121 q 0.73942,0.0435 1.13088,0.39146 0.39146,0.30446 0.52194,0.78291 0.17398,0.43495 0.13049,0.9569 -0.0435,0.47845 -0.17398,0.9134 l -1.21787,13.44005 q 0,0.43495 -0.34796,0.78292 -0.34797,0.34796 -0.78292,0.39145 -0.39146,0.087 -0.78291,-0.26097 -0.39146,-0.30446 -0.52195,-1.17437 l 0.52195,-5.69789 q -1.13088,0.86991 -2.52273,1.69632 -1.39185,0.78292 -2.91419,1.39185 -1.52233,0.60894 -3.08817,1.00039 -1.522331,0.34797 -2.957677,0.30447 -3.871082,0.0435 -7.04624,-1.00039 -3.175158,-1.08738 -5.48041,-3.04467 -2.261756,-1.95729 -3.566615,-4.6975 -1.261364,-2.7837 -1.348355,-6.13284 0.304467,-3.91457 1.826803,-7.04624 1.565832,-3.17516 4.045064,-5.43691 2.479233,-2.26176 5.697886,-3.52312 3.262149,-1.26137 6.95925,-1.39185 2.435734,-0.0435 4.393024,0.69592 2.00079,0.69593 3.43613,1.82681 1.43535,1.13087 2.26176,2.47923 0.8699,1.30486 1.00039,2.47923 -0.0435,0.73942 -0.43495,1.04389 -0.39146,0.26097 -0.86991,0.21748 -0.47845,-0.0435 -0.9134,-0.34797 -0.43495,-0.30446 -0.52194,-0.69592 -0.17399,-0.65243 -0.86991,-1.47884 -0.69593,-0.86991 -1.78331,-1.65282 -1.08738,-0.78292 -2.47923,-1.34836 -1.39185,-0.60893 -2.957682,-0.78291 -2.827195,-0.26098 -5.610895,0.82641 -2.7837,1.08738 -5.045456,3.13166 -2.218261,2.04428 -3.653607,4.87147 -1.39185,2.7837 -1.435345,5.95886 -0.173981,2.91419 0.956897,5.30643 1.130878,2.34875 3.131662,4.00157 2.000785,1.65282 4.567008,2.47923 2.609719,0.78292 5.349924,0.56544 1.043887,0 2.740204,-0.47845 1.73981,-0.52194 3.52312,-1.30486 1.78331,-0.78291 3.43613,-1.7833 1.65282,-1.04389 2.56622,-2.13128 l 0.34797,-3.95807 -7.78566,-0.17398 q -0.52195,-0.43495 -0.60894,-0.82641 -0.087,-0.43495 0.0435,-0.73942 0.13048,-0.30447 0.39145,-0.47845 0.30447,-0.21748 0.52195,-0.21748 0.65243,0 1.78331,0 1.13087,-0.0435 2.34874,-0.0435 1.21787,-0.0435 2.34875,-0.0435 1.13088,-0.0435 1.73981,-0.0435 z"
             style="font-family:'Janda Silly Monkey';-inkscape-font-specification:'Janda Silly Monkey'"
             id="path68662" />
          <path
             d="m 119.74375,226.16816 q -0.56544,0.8699 -1.08738,1.00039 -0.52195,0.17398 -0.91341,0 -0.47844,-0.17398 -0.8699,-0.73942 l 0.13048,-21.70416 q 0,-0.56544 0.43496,-0.82641 0.43495,-0.30447 0.9134,-0.26098 0.52194,0 0.9569,0.39146 0.43495,0.34796 0.43495,1.00039 z m -1.47884,-26.09719 -2.65322,1.56583 q -0.65243,0 -0.65243,-0.60893 l 1.60933,-2.30526 -1.52233,-1.60932 q -0.21748,-0.13049 -0.26098,-0.30447 0,-0.17398 0.087,-0.34796 0.087,-0.17398 0.26098,-0.21748 0.17398,-0.087 0.39145,0.0435 l 1.82681,0.21747 1.21787,-1.95729 q 0.21747,-0.34796 0.60893,-0.26097 0.39146,0.087 0.39146,0.60894 l 0.30447,1.95729 2.17476,0.30446 q 0.39146,0 0.47845,0.13049 0.087,0.13048 0,0.34796 -0.0435,0.17398 -0.21748,0.34796 -0.13048,0.13049 -0.21747,0.13049 l -1.78331,0.78292 0.56544,2.47923 h 0.0435 q 0,0.0435 0,0.17398 0,0.13049 -0.0435,0.26097 0,0.13049 -0.13049,0.17398 -0.13048,0 -0.43495,-0.13048 z"
             style="font-family:'Janda Silly Monkey';-inkscape-font-specification:'Janda Silly Monkey'"
             id="path68664" />
          <path
             d="m 125.44164,198.46164 q 0.39145,-0.43495 0.82641,-0.65243 0.47845,-0.26097 0.8699,-0.26097 0.43496,0 0.69593,0.26097 0.30447,0.21748 0.34796,0.73942 l 0.0435,2.7837 q 2.34874,-1.39185 4.82798,-2.69671 2.52272,-1.30486 4.95846,-2.26175 2.47923,-1.00039 4.82798,-1.47884 2.39224,-0.52195 4.52351,-0.34797 2.69671,0.30447 4.00157,2.08778 1.30486,1.78331 0.86991,4.26254 -0.34796,1.69632 -1.43535,3.13166 -1.04388,1.43535 -2.34874,2.60972 -1.30486,1.13088 -2.65322,2.00079 -1.30486,0.8699 -2.08777,1.47884 l 4.74099,17.18064 q -0.087,0.39146 -0.47845,0.65243 -0.39146,0.26098 -0.86991,0.34797 -0.47845,0.087 -0.9134,-0.0435 -0.43495,-0.087 -0.56544,-0.47845 l -4.43652,-16.61521 q -3.17516,1.47884 -5.39342,2.43574 -2.17476,0.9569 -3.61011,1.56583 -1.43535,0.56544 -2.21826,0.86991 -0.73942,0.30447 -1.13088,0.43495 -0.34796,0.13049 -0.43495,0.17398 -0.087,0.0435 -0.087,0.17398 l 0.34796,11.83073 q -0.087,0.39146 -0.47845,0.56544 -0.39146,0.21747 -0.86991,0.26097 -0.43495,0.0435 -0.82641,-0.087 -0.34796,-0.13049 -0.39145,-0.39146 z m 2.87069,14.78841 q 0.8699,-0.30447 2.56622,-0.86991 1.73981,-0.60893 3.82759,-1.43534 2.08777,-0.82641 4.34953,-1.8703 2.26176,-1.08738 4.26254,-2.34875 2.04428,-1.30486 3.61011,-2.7837 1.56583,-1.52233 2.26176,-3.21865 0.34796,-1.39185 -0.17398,-2.47923 -0.47845,-1.08739 -1.73982,-1.26137 -1.8703,-0.26097 -4.21904,0.39146 -2.30525,0.60893 -4.87148,1.78331 -2.52273,1.13088 -5.08895,2.65321 -2.56622,1.52234 -4.87147,3.00118 z"
             style="font-family:'Janda Silly Monkey';-inkscape-font-specification:'Janda Silly Monkey'"
             id="path68666" />
          <path
             d="m 157.45418,232.301 q -0.73942,-0.0435 -1.13088,-0.39146 -0.39145,-0.30447 -0.56544,-0.78292 -0.13048,-0.43495 -0.087,-0.95689 0.0435,-0.47845 0.17399,-0.91341 l -0.21748,-35.2312 q 0,-0.43495 0.34796,-0.82641 0.39146,-0.39146 0.82641,-0.52194 0.47845,-0.13049 0.86991,0.13048 0.43495,0.26097 0.56544,1.13088 v 35.79664 l 3.78409,0.087 q 0.52194,0.43496 0.56544,0.86991 0.0435,0.47845 -0.17398,0.82641 -0.21748,0.34796 -0.56544,0.56544 -0.30447,0.26097 -0.52195,0.26097 -0.65243,0 -1.13087,0 -0.43496,0 -0.86991,-0.0435 -0.39146,0 -0.82641,0 -0.43495,0 -1.04389,0 z"
             style="font-family:'Janda Silly Monkey';-inkscape-font-specification:'Janda Silly Monkey'"
             id="path68668" />
        </g>
        <g
           aria-label="Scouts"
           id="text64362"
           style="font-size:53.527px;line-height:1.25;letter-spacing:0px;word-spacing:0px;stroke-width:0.62727">
          <path
             d="m 112.35722,232.30688 q 0.48174,0.42822 0.48174,0.85643 0,0.85643 -1.12406,0.85643 -0.69585,-0.32116 -1.1776,-0.53527 -0.42821,-0.2141 -0.85643,-0.32116 -0.37469,-0.16058 -0.8029,-0.21411 -0.42822,-0.10705 -1.12407,-0.10705 -0.90996,0 -2.03403,0.42822 -1.12406,0.37468 -2.14108,1.07054 -1.01701,0.64232 -1.76639,1.55228 -0.69585,0.90996 -0.74938,1.87344 0,1.12407 0.69586,2.19461 0.74937,1.07054 1.87344,2.19461 1.12407,1.07054 2.51577,2.24813 1.3917,1.1776 2.72988,2.51577 1.3917,1.33818 2.51577,2.89046 1.17759,1.55228 1.81991,3.42573 2.03403,0.58879 3.85395,1.28464 1.81992,0.64233 3.31867,1.23113 0.48174,0.32116 0.48174,0.85643 0,0.8029 -1.12406,0.8029 -1.3917,-0.48174 -2.83693,-0.90996 -1.44523,-0.42821 -2.83693,-0.85643 0,0.42822 0.0535,0.96349 0.10706,0.48174 0.10706,0.90996 0,2.46224 -1.12407,4.22863 -1.07054,1.71286 -2.94399,2.7834 -1.81991,1.12407 -4.22863,1.60581 -2.35519,0.53527 -4.92448,0.53527 -2.141083,0 -4.014528,-0.48174 -1.873445,-0.42822 -3.318674,-1.33817 -1.391702,-0.85644 -2.194607,-2.19461 -0.802905,-1.33818 -0.802905,-3.10457 0,-2.03402 0.856432,-3.63983 0.856432,-1.65934 2.301661,-2.78341 1.445229,-1.12406 3.318674,-1.71286 1.926972,-0.5888 4.014527,-0.5888 1.65934,0 3.42573,0.32116 1.76639,0.26764 4.01452,0.74938 -0.42821,-1.01701 -1.3917,-2.14108 -0.96349,-1.17759 -2.14108,-2.35519 -1.17759,-1.17759 -2.40872,-2.40871 -1.23112,-1.28465 -2.30166,-2.5693 -1.01701,-1.28465 -1.659334,-2.56929 -0.642324,-1.33818 -0.642324,-2.67635 0,-1.28465 0.695851,-2.40872 0.695851,-1.12407 1.873447,-1.9805 1.17759,-0.90996 2.62282,-1.3917 1.49876,-0.53527 3.05104,-0.53527 2.99751,0 6.04855,1.44523 z m -3.47925,29.27927 q 1.07054,-0.69585 1.49875,-1.71287 0.42822,-1.07054 0.42822,-2.1946 0,-0.74938 -0.21411,-1.49876 -0.16058,-0.8029 -0.42822,-1.49875 L 108.5568,254.36 q -1.49875,-0.26763 -3.10456,-0.42821 -1.60581,-0.21411 -3.26515,-0.21411 -0.85643,0 -2.30166,0.21411 -1.445229,0.21411 -2.836931,0.8029 -1.391702,0.5888 -2.408715,1.60581 -1.017013,1.01702 -1.017013,2.67635 0,1.28465 0.642324,2.19461 0.642324,0.90996 1.659337,1.49876 1.07054,0.53527 2.355188,0.74937 1.284648,0.26764 2.5693,0.26764 2.30166,0 4.44274,-0.5888 2.1946,-0.64232 3.58631,-1.55228 z"
             style="font-family:'Cheddar Jack';-inkscape-font-specification:'Cheddar Jack'"
             id="path68671" />
          <path
             d="m 127.55888,251.46955 q 0,0.42821 -0.26764,0.69585 -0.26763,0.26763 -0.53527,0.26763 -0.5888,0 -0.90996,-0.5888 l -0.21411,-2.56929 h -0.58879 q -0.80291,0.48174 -1.60581,1.49875 -0.74938,1.01702 -1.39171,2.30167 -0.64232,1.23112 -1.07054,2.56929 -0.37468,1.28465 -0.37468,2.40872 0,0.16058 0.0535,0.58879 0.0535,0.37469 0.16058,0.80291 0.16058,0.42821 0.42822,0.8029 0.26763,0.32117 0.69585,0.37469 0.64232,-0.10705 1.49876,-0.64232 0.85643,-0.5888 1.65933,-1.23112 0.85644,-0.64233 1.60581,-1.12407 0.74938,-0.53527 1.1776,-0.53527 0.90996,0 0.90996,0.85643 0,0.32116 -0.26764,0.69585 -0.69585,0.5888 -1.49875,1.44523 -0.74938,0.85643 -1.60581,1.65934 -0.80291,0.74938 -1.7664,1.28465 -0.90995,0.53527 -1.87344,0.53527 -1.01701,0 -1.87345,-0.48175 -0.8029,-0.53527 -1.3917,-1.28464 -0.58879,-0.80291 -0.90996,-1.71287 -0.32116,-0.96348 -0.32116,-1.87344 0,-1.76639 0.53527,-3.69337 0.5888,-1.98049 1.60581,-3.63983 1.01701,-1.71287 2.40872,-2.78341 1.3917,-1.12406 2.99751,-1.12406 1.23112,0 1.9805,0.85643 0.8029,0.8029 0.8029,2.46224 0,0.26764 0,0.5888 0,0.26763 -0.0535,0.5888 z"
             style="font-family:'Cheddar Jack';-inkscape-font-specification:'Cheddar Jack'"
             id="path68673" />
          <path
             d="m 135.64131,250.88075 q 0,0.0535 0.0535,0.10705 2.35519,-1.07054 4.92448,-1.81992 2.62283,-0.74937 5.08507,-1.33817 1.01701,0 1.01701,0.85643 0,0.48174 -0.53527,0.80291 -1.71286,0.69585 -3.3722,1.44523 -1.65934,0.69585 -3.31867,1.49875 0.48174,0.80291 0.48174,1.81992 0,0.8029 -0.37469,2.08755 -0.37469,1.23112 -1.07054,2.46224 -0.64232,1.23113 -1.65934,2.30167 -1.01701,1.01701 -2.30166,1.49875 -0.53527,0.21411 -1.17759,0.21411 -0.5888,0 -1.23112,0.10705 -0.90996,-0.10705 -1.71287,-1.12406 -0.74937,-1.07054 -0.74937,-2.51577 0,-1.12407 0.48174,-2.72988 0.53527,-1.65934 1.28465,-3.15809 0.74938,-1.55229 1.55228,-2.62283 0.85643,-1.12406 1.55228,-1.12406 0.48175,0 0.80291,0.48174 l 0.26763,0.69585 z m -0.42821,3.26515 q -0.90996,-0.48175 -1.07054,-1.23113 -0.74938,1.55229 -1.01702,3.31868 -0.26763,1.71286 -0.26763,3.3722 0.85643,-0.10705 1.55228,-0.85643 0.69585,-0.80291 1.1776,-1.71287 0.48174,-0.90996 0.74937,-1.71286 0.32117,-0.80291 0.32117,-0.90996 v -0.10705 q -0.32117,-0.10706 -0.74938,-0.0535 -0.42822,0 -0.69585,-0.10705 z"
             style="font-family:'Cheddar Jack';-inkscape-font-specification:'Cheddar Jack'"
             id="path68675" />
          <path
             d="m 145.75786,247.56207 q 0.32116,-0.53527 0.8029,-0.53527 0.32116,0 0.5888,0.26764 0.26763,0.21411 0.26763,0.64232 0,0.10706 -0.10705,0.42822 -0.64232,1.9805 -1.17759,4.7639 -0.53527,2.72988 -0.53527,5.29918 0,1.87344 0.37469,3.21162 0.48174,-0.26764 0.85643,-0.53527 v -0.0535 q 0.48174,-0.74938 1.23112,-1.44523 0.74938,-0.69585 1.23112,-1.44523 0.53527,-0.8029 1.12407,-1.9805 0.58879,-1.23112 1.12406,-2.30166 0.5888,-1.12407 1.1776,-1.87344 0.58879,-0.80291 1.23112,-0.80291 0.5888,0 1.01701,0.48174 0.42822,0.42822 0.42822,1.1776 0,0.90996 -0.26764,2.30166 -0.21411,1.3917 -0.21411,2.94398 0,0.37469 0,0.96349 0.0535,0.5888 0.16059,1.17759 0.10705,0.5888 0.26763,1.01702 0.16058,0.42821 0.42822,0.42821 0.37469,0 0.90996,-0.37469 0.53527,-0.42821 1.01701,-0.42821 0.26763,0 0.37469,0.32116 0.16058,0.26763 0.16058,0.37469 0,0.48174 -0.37469,0.85643 -0.37469,0.37469 -0.85643,0.69585 -0.48175,0.26764 -0.96349,0.37469 -0.48174,0.16058 -0.74938,0.16058 -0.74937,0 -1.28464,-0.48174 -0.48175,-0.53527 -0.80291,-1.23112 -0.32116,-0.69585 -0.48174,-1.3917 -0.16058,-0.74938 -0.26764,-1.12407 -0.48174,0.96348 -1.28465,1.9805 -0.74937,0.96348 -1.65933,1.76639 -0.85643,0.8029 -1.87345,1.28465 -0.96348,0.53527 -1.87344,0.53527 -0.53527,0 -1.12407,-0.26764 -0.53527,-0.21411 -1.01701,-0.8029 -0.42822,-0.53527 -0.74938,-1.44523 -0.26764,-0.90996 -0.26764,-2.24814 0,-1.33817 0.26764,-3.15809 0.32116,-1.81992 0.8029,-3.63984 0.48175,-1.87344 1.01702,-3.47925 0.58879,-1.60581 1.07054,-2.40872 z"
             style="font-family:'Cheddar Jack';-inkscape-font-specification:'Cheddar Jack'"
             id="path68677" />
          <path
             d="m 159.83536,255.37702 q 0.16058,-1.76639 0.37469,-3.42573 0.26763,-1.71287 0.64232,-3.42573 -1.92697,0.42822 -2.7834,0.74938 -0.80291,0.32116 -1.23112,0.32116 -0.64233,0 -0.64233,-0.85643 0,-0.80291 1.01701,-1.49876 1.07054,-0.74938 2.46225,-1.33817 0.85643,-0.74938 1.33817,-1.33818 0.48174,-0.64232 0.80291,-1.28465 0.32116,-0.69585 0.53527,-1.49875 0.2141,-0.80291 0.53527,-1.92697 0.16058,-0.48175 0.37469,-1.55229 0.26763,-1.12406 0.64232,-2.24813 0.42822,-1.12407 1.01701,-1.9805 0.5888,-0.85643 1.44523,-0.85643 0.85643,0 0.85643,0.8029 0,0.42822 -0.16058,1.23112 -0.16058,0.74938 -0.48174,1.9805 -0.26764,1.23112 -0.69585,3.05104 -0.37469,1.76639 -0.85643,4.22864 0.53527,0 1.01701,0 0.48174,-0.0535 0.96349,-0.0535 0.58879,0 1.3917,0 0.85643,0 1.60581,0.10705 0.8029,0.0535 1.33817,0.26764 0.53527,0.21411 0.53527,0.69585 0,0.48174 -0.96348,0.8029 -0.90996,0.32117 -2.19461,0.5888 -1.23112,0.26764 -2.51577,0.53527 -1.28465,0.21411 -1.9805,0.48174 -0.5888,2.5693 -1.01701,5.51328 -0.42822,2.89046 -0.42822,5.45976 0,0.32116 0,0.85643 0.0535,0.53527 0.0535,1.12407 0.0535,0.53527 0.10705,0.96348 0.10706,0.37469 0.26764,0.37469 0.5888,0 2.40871,-1.71286 1.87345,-1.76639 3.961,-5.03154 0.26764,-0.26763 0.64233,-0.26763 0.37468,0 0.64232,0.26763 0.26763,0.21411 0.26763,0.5888 0,0.26763 -0.26763,0.64232 -0.74938,1.44523 -1.81992,2.99751 -1.01701,1.55229 -2.14108,2.78341 -1.12407,1.23112 -2.24813,2.03402 -1.12407,0.80291 -2.08756,0.80291 -0.90995,0 -1.49875,-0.64233 -0.53527,-0.64232 -0.90996,-1.55228 -0.32116,-0.90996 -0.48174,-1.92697 -0.10706,-1.01701 -0.10706,-1.81992 0,-1.07054 0.0535,-2.08755 0.10705,-1.01701 0.21411,-1.92697 z"
             style="font-family:'Cheddar Jack';-inkscape-font-specification:'Cheddar Jack'"
             id="path68679" />
          <path
             d="m 170.70118,257.25046 q -0.32117,0.42822 -0.74938,0.42822 -0.37469,0 -0.64233,-0.26764 -0.2141,-0.26763 -0.2141,-0.69585 v -0.26763 q 0.64232,-1.44523 1.71286,-2.99752 1.07054,-1.60581 2.19461,-3.05103 1.12406,-1.44523 2.08755,-2.67635 0.96349,-1.23113 1.3917,-2.03403 0,-0.53527 0.5888,-0.74938 0.64232,-0.21411 0.85643,-0.21411 0.64232,0 1.01701,0.42822 0.42822,0.42822 0.42822,1.28465 -0.74938,2.67635 -0.74938,5.29917 0,1.3917 0.26764,2.67635 0.26763,1.28465 0.64232,2.67635 1.49876,-0.74938 2.94399,-1.3917 1.49875,-0.64233 2.94398,-1.28465 0.32116,-0.10705 0.48174,-0.10705 0.42822,0 0.64233,0.26763 0.21411,0.26764 0.21411,0.5888 0,0.37469 -0.74938,0.90996 -0.74938,0.53527 -1.81992,1.12406 -1.01701,0.53527 -2.19461,1.12407 -1.17759,0.5888 -2.03402,1.12407 0,1.71286 -0.53527,2.94398 -0.48175,1.1776 -1.28465,1.92698 -0.74938,0.74937 -1.65934,1.07054 -0.90996,0.32116 -1.71286,0.32116 -1.23112,0 -2.03403,-0.69585 -0.8029,-0.64233 -0.8029,-1.71287 0,-0.64232 0.48174,-1.33817 0.53527,-0.69585 1.23112,-1.33818 0.74938,-0.64232 1.44523,-1.12406 0.74938,-0.48175 1.23112,-0.74938 -0.32116,-1.92697 -0.5888,-3.63984 -0.26763,-1.71286 -0.26763,-3.3722 -1.28465,1.28465 -2.5693,2.62282 -1.28465,1.33818 -2.1946,2.89046 z"
             style="font-family:'Cheddar Jack';-inkscape-font-specification:'Cheddar Jack'"
             id="path68681" />
        </g>
      </g>
      <g
         id="g2613"
         transform="matrix(0.02765562,0,0,-0.02765562,147.90552,51.221309)">
        <path
           d="m 1767.4,1523.59 -19.93,-1123.29 -199.71,1042.48 -2.94,-0.56 205.13,-1070.85 20.45,1152.17 -3,0.05"
           style="fill:#37474f;fill-opacity:1;fill-rule:nonzero;stroke:none;stroke-width:0.1"
           id="path66" />
        <path
           d="m 1767.03,1344.94 c 0,0 -21.96,-11.23 -22.68,-24.47 -0.73,-13.23 30.03,-14.99 40.52,-11.51 18.61,6.17 -3.52,35.44 -17.84,35.98"
           style="fill:#aa87de;fill-opacity:1;fill-rule:nonzero;stroke:none;stroke-width:0.1"
           id="path68" />
        <path
           d="m 1951.8,1548.2 c -15.19,-119.45 -101.83,-223.98 -190.86,-212.65 -89.04,11.32 -146.76,134.21 -131.57,253.66 15.19,119.45 97.54,190.23 186.58,178.91 89.04,-11.32 151.04,-100.46 135.85,-219.92"
           style="fill:#c6afe9;fill-opacity:1;fill-rule:nonzero;stroke:none;stroke-width:0.1"
           id="path70" />
        <path
           d="m 1815.95,1752.12 c 62.22,-7.91 111.79,-52.24 133,-118.1 -15.87,74.55 -67,125.71 -133,134.1 -77.01,9.8 -149.01,-41.85 -176.89,-133.27 33.26,81.71 102.86,126.69 176.89,117.27"
           style="fill:#ffffff;fill-opacity:1;fill-rule:nonzero;stroke:none;stroke-width:0.1"
           id="path72" />
        <path
           d="m 1762.4,1392.32 c -49.57,6.3 -92.25,33.87 -123.31,72.9 20.29,-68.97 64.59,-122.39 121.85,-129.67 63.51,-8.08 125.79,42.8 161.8,115.99 -43.43,-42.26 -100.92,-66.78 -160.34,-59.22"
           style="fill:#aa87de;fill-opacity:1;fill-rule:nonzero;stroke:none;stroke-width:0.1"
           id="path74" />
        <path
           d="m 1707.19,1481.38 c 16.48,-119.28 -39.92,-242.78 -128.83,-255.06 -88.91,-12.28 -176.66,91.31 -193.14,210.59 -16.47,119.28 44.58,209.09 133.49,221.37 88.91,12.28 172.01,-57.62 188.48,-176.9"
           style="fill:#ffd42a;fill-opacity:1;fill-rule:nonzero;stroke:none;stroke-width:0.1"
           id="path76" />
        <path
           d="m 1518.71,1644.28 c 66.06,9.12 129.11,-24.37 167.16,-88.59 -33.84,72.86 -98.78,112.03 -167.16,102.59 -58.86,-8.13 -105.5,-50.24 -125.53,-112.39 24.4,54.42 69.82,90.69 125.53,98.39"
           style="fill:#ffffff;fill-opacity:1;fill-rule:nonzero;stroke:none;stroke-width:0.1"
           id="path78" />
        <path
           d="m 1581.8,1236.97 c 0,0 -18.27,-16.56 -15.52,-29.53 2.75,-12.96 32.9,-6.64 42.12,-0.55 16.36,10.81 -12.63,33.3 -26.6,30.08"
           style="fill:#d4aa00;fill-opacity:1;fill-rule:nonzero;stroke:none;stroke-width:0.1"
           id="path80" />
        <path
           d="m 1568.9,1300.66 c -56.43,-7.79 -112.16,12.93 -159.26,51.77 35.75,-79.13 101.91,-135.34 168.72,-126.11 66.15,9.13 114.28,79.82 127.82,164.53 -34.64,-48.64 -81.91,-82.54 -137.28,-90.19"
           style="fill:#d4aa00;fill-opacity:1;fill-rule:nonzero;stroke:none;stroke-width:0.1"
           id="path82" />
        <path
           d="m 1935.07,0 h 64.9301 V 473.87 H 1935.07 Z"
           style="fill:#af7e71;fill-opacity:1;fill-rule:nonzero;stroke:none;stroke-width:0.1"
           id="path84" />
        <path
           d="m 2000,46.3199 h -64.93 V 91.7301 H 2000 V 46.3199"
           style="fill:#7a584f;fill-opacity:1;fill-rule:nonzero;stroke:none;stroke-width:0.1"
           id="path86" />
        <path
           d="M 1002.49,91.7301 H 2000 v 382.14 h -997.51 z"
           style="fill:#ffffff;fill-opacity:1;fill-rule:nonzero;stroke:none;stroke-width:0.1"
           id="path88" />
        <path
           d="m 1343,91.7301 h -38.53 v 0 H 1343 v 0 m 0,38.8499 h -40.39 v 34.11 H 1343 v -34.11"
           style="fill:#facbca;fill-opacity:1;fill-rule:nonzero;stroke:none;stroke-width:0.1"
           id="path90" />
        <path
           d="m 1432.22,91.7301 h -40.39 v 0 h 40.39 v 0 m 0,38.8499 h -40.39 v 34.11 h 40.39 v -34.11"
           style="fill:#facbca;fill-opacity:1;fill-rule:nonzero;stroke:none;stroke-width:0.1"
           id="path92" />
        <path
           d="m 1521.44,91.7301 h -40.39 v 0 h 40.39 v 0 m 0,38.8499 h -40.39 V 165 c 4.79,1.15 8.34,5.46 8.34,10.6 v 1.95 h 32.05 v -46.97 m 0,85.82 h -32.05 v 46.97 h 32.05 V 216.4 m 0,85.82 h -32.05 v 3.91 0 43.07 h 32.05 v -46.98 m 0,85.83 h -32.05 v 46.97 h 32.05 v -46.97"
           style="fill:#facbca;fill-opacity:1;fill-rule:nonzero;stroke:none;stroke-width:0.1"
           id="path94" />
        <path
           d="m 1610.66,91.7301 h -40.39 v 0 h 40.39 v 0 m 0,38.8499 h -40.39 v 46.97 h 40.39 v -46.97 m 0,85.82 h -40.39 v 46.97 h 40.39 V 216.4 m 0,85.82 h -40.39 v 46.98 h 40.39 v -46.98 m 0,85.83 h -40.39 v 46.97 h 40.39 v -46.97"
           style="fill:#facbca;fill-opacity:1;fill-rule:nonzero;stroke:none;stroke-width:0.1"
           id="path96" />
        <path
           d="m 1699.88,91.7301 h -40.39 v 0 h 40.39 v 0 m 0,38.8499 h -40.39 v 46.97 h 40.39 v -46.97 m 0,85.82 h -40.39 v 46.97 h 40.39 V 216.4 m 0,85.82 h -40.39 v 46.98 h 40.39 v -46.98 m 0,85.83 h -40.39 v 46.97 h 40.39 v -46.97"
           style="fill:#facbca;fill-opacity:1;fill-rule:nonzero;stroke:none;stroke-width:0.1"
           id="path98" />
        <path
           d="m 1789.1,91.7301 h -40.39 v 0 h 40.39 v 0 m 0,38.8499 h -40.39 v 46.97 h 40.39 v -46.97 m 0,85.82 h -40.39 v 46.97 h 40.39 V 216.4 m 0,85.82 h -40.39 v 46.98 h 40.39 v -46.98 m 0,85.83 h -40.39 v 46.97 h 40.39 v -46.97"
           style="fill:#facbca;fill-opacity:1;fill-rule:nonzero;stroke:none;stroke-width:0.1"
           id="path100" />
        <path
           d="m 1878.32,91.7301 h -40.39 v 0 h 40.39 v 0 m 0,38.8499 h -40.39 v 46.97 h 40.39 v -46.97 m 0,85.82 h -40.39 v 46.97 h 40.39 V 216.4 m 0,85.82 h -40.39 v 46.98 h 40.39 v -46.98 m 0,85.83 h -40.39 v 46.97 h 40.39 v -46.97"
           style="fill:#facbca;fill-opacity:1;fill-rule:nonzero;stroke:none;stroke-width:0.1"
           id="path102" />
        <path
           d="m 1967.54,91.7301 h -40.39 v 0 h 40.39 v 0 m 0,38.8499 h -40.39 v 46.97 h 40.39 v -46.97 m 0,85.82 h -40.39 v 46.97 h 40.39 V 216.4 m 0,85.82 h -40.39 v 46.98 h 40.39 v -46.98 m 0,85.83 h -40.39 v 46.97 h 40.39 v -46.97"
           style="fill:#facbca;fill-opacity:1;fill-rule:nonzero;stroke:none;stroke-width:0.1"
           id="path104" />
        <path
           d="m 2000,91.7301 h -32.46 V 130.58 H 2000 V 91.7301 m -72.85,0 h -48.83 V 130.58 h 48.83 V 91.7301 m -89.22,0 H 1789.1 V 130.58 h 48.83 V 91.7301 m -89.22,0 h -48.83 V 130.58 h 48.83 V 91.7301 m -89.22,0 h -48.83 V 130.58 h 48.83 V 91.7301 m -89.22,0 h -48.83 V 130.58 h 48.83 V 91.7301 m -89.22,0 h -48.83 V 130.58 h 48.83 V 91.7301 m -89.22,0 H 1343 V 130.58 h 48.83 V 91.7301 m -89.22,28.1599 -0.7,10.69 h 0.7 v -10.69"
           style="fill:#facbca;fill-opacity:1;fill-rule:nonzero;stroke:none;stroke-width:0.1"
           id="path106" />
        <path
           d="m 1343,91.7301 h -38.53 l -1.86,28.1599 v 10.69 H 1343 V 91.7301"
           style="fill:#f5a2a0;fill-opacity:1;fill-rule:nonzero;stroke:none;stroke-width:0.1"
           id="path108" />
        <path
           d="m 1391.83,91.7301 h 40.3898 v 38.85 H 1391.83 Z"
           style="fill:#f5a2a0;fill-opacity:1;fill-rule:nonzero;stroke:none;stroke-width:0.1"
           id="path110" />
        <path
           d="m 1481.05,91.7301 h 40.3898 v 38.85 H 1481.05 Z"
           style="fill:#f5a2a0;fill-opacity:1;fill-rule:nonzero;stroke:none;stroke-width:0.1"
           id="path112" />
        <path
           d="m 1570.27,91.7301 h 40.3902 v 38.85 H 1570.27 Z"
           style="fill:#f5a2a0;fill-opacity:1;fill-rule:nonzero;stroke:none;stroke-width:0.1"
           id="path114" />
        <path
           d="m 1659.49,91.7301 h 40.3898 v 38.85 H 1659.49 Z"
           style="fill:#f5a2a0;fill-opacity:1;fill-rule:nonzero;stroke:none;stroke-width:0.1"
           id="path116" />
        <path
           d="m 1748.71,91.7301 h 40.3898 v 38.85 H 1748.71 Z"
           style="fill:#f5a2a0;fill-opacity:1;fill-rule:nonzero;stroke:none;stroke-width:0.1"
           id="path118" />
        <path
           d="m 1837.93,91.7301 h 40.3898 v 38.85 H 1837.93 Z"
           style="fill:#f5a2a0;fill-opacity:1;fill-rule:nonzero;stroke:none;stroke-width:0.1"
           id="path120" />
        <path
           d="m 1927.15,91.7301 h 40.3902 v 38.85 H 1927.15 Z"
           style="fill:#f5a2a0;fill-opacity:1;fill-rule:nonzero;stroke:none;stroke-width:0.1"
           id="path122" />
        <path
           d="m 2000,177.55 h -32.46 V 216.4 H 2000 v -38.85 m -72.85,0 h -48.83 v 38.85 h 48.83 v -38.85 m -89.22,0 h -48.83 v 38.85 h 48.83 v -38.85 m -89.22,0 h -48.83 v 38.85 h 48.83 v -38.85 m -89.22,0 h -48.83 v 38.85 h 48.83 v -38.85 m -89.22,0 h -48.83 v 38.85 h 48.83 v -38.85"
           style="fill:#facbca;fill-opacity:1;fill-rule:nonzero;stroke:none;stroke-width:0.1"
           id="path124" />
        <path
           d="m 1489.39,177.55 h 32.0496 V 216.4 H 1489.39 Z"
           style="fill:#f5a2a0;fill-opacity:1;fill-rule:nonzero;stroke:none;stroke-width:0.1"
           id="path126" />
        <path
           d="m 1570.27,177.55 h 40.3902 V 216.4 H 1570.27 Z"
           style="fill:#f5a2a0;fill-opacity:1;fill-rule:nonzero;stroke:none;stroke-width:0.1"
           id="path128" />
        <path
           d="m 1659.49,177.55 h 40.3898 V 216.4 H 1659.49 Z"
           style="fill:#f5a2a0;fill-opacity:1;fill-rule:nonzero;stroke:none;stroke-width:0.1"
           id="path130" />
        <path
           d="m 1748.71,177.55 h 40.3898 V 216.4 H 1748.71 Z"
           style="fill:#f5a2a0;fill-opacity:1;fill-rule:nonzero;stroke:none;stroke-width:0.1"
           id="path132" />
        <path
           d="m 1837.93,177.55 h 40.3898 V 216.4 H 1837.93 Z"
           style="fill:#f5a2a0;fill-opacity:1;fill-rule:nonzero;stroke:none;stroke-width:0.1"
           id="path134" />
        <path
           d="m 1927.15,177.55 h 40.3902 V 216.4 H 1927.15 Z"
           style="fill:#f5a2a0;fill-opacity:1;fill-rule:nonzero;stroke:none;stroke-width:0.1"
           id="path136" />
        <path
           d="m 2000,263.37 h -32.46 v 38.85 H 2000 v -38.85 m -72.85,0 h -48.83 v 38.85 h 48.83 v -38.85 m -89.22,0 h -48.83 v 38.85 h 48.83 v -38.85 m -89.22,0 h -48.83 v 38.85 h 48.83 v -38.85 m -89.22,0 h -48.83 v 38.85 h 48.83 v -38.85 m -89.22,0 h -48.83 v 38.85 h 48.83 v -38.85"
           style="fill:#facbca;fill-opacity:1;fill-rule:nonzero;stroke:none;stroke-width:0.1"
           id="path138" />
        <path
           d="m 1489.39,263.37 h 32.0496 v 38.85 H 1489.39 Z"
           style="fill:#f5a2a0;fill-opacity:1;fill-rule:nonzero;stroke:none;stroke-width:0.1"
           id="path140" />
        <path
           d="m 1570.27,263.37 h 40.3902 v 38.85 H 1570.27 Z"
           style="fill:#f5a2a0;fill-opacity:1;fill-rule:nonzero;stroke:none;stroke-width:0.1"
           id="path142" />
        <path
           d="m 1659.49,263.37 h 40.3898 v 38.85 H 1659.49 Z"
           style="fill:#f5a2a0;fill-opacity:1;fill-rule:nonzero;stroke:none;stroke-width:0.1"
           id="path144" />
        <path
           d="m 1748.71,263.37 h 40.3898 v 38.85 H 1748.71 Z"
           style="fill:#f5a2a0;fill-opacity:1;fill-rule:nonzero;stroke:none;stroke-width:0.1"
           id="path146" />
        <path
           d="m 1837.93,263.37 h 40.3898 v 38.85 H 1837.93 Z"
           style="fill:#f5a2a0;fill-opacity:1;fill-rule:nonzero;stroke:none;stroke-width:0.1"
           id="path148" />
        <path
           d="m 1927.15,263.37 h 40.3902 v 38.85 H 1927.15 Z"
           style="fill:#f5a2a0;fill-opacity:1;fill-rule:nonzero;stroke:none;stroke-width:0.1"
           id="path150" />
        <path
           d="m 2000,349.2 h -32.46 v 38.85 H 2000 V 349.2 m -72.85,0 h -48.83 v 38.85 h 48.83 V 349.2 m -89.22,0 h -48.83 v 38.85 h 48.83 V 349.2 m -89.22,0 h -48.83 v 38.85 h 48.83 V 349.2 m -89.22,0 h -48.83 v 38.85 h 48.83 V 349.2 m -89.22,0 h -48.83 v 38.85 h 48.83 V 349.2"
           style="fill:#facbca;fill-opacity:1;fill-rule:nonzero;stroke:none;stroke-width:0.1"
           id="path152" />
        <path
           d="m 1521.44,349.2 h -32.05 v 38.85 h 32.05 V 349.2"
           style="fill:#f5a2a0;fill-opacity:1;fill-rule:nonzero;stroke:none;stroke-width:0.1"
           id="path154" />
        <path
           d="m 1570.27,349.2 h 40.3902 v 38.85 H 1570.27 Z"
           style="fill:#f5a2a0;fill-opacity:1;fill-rule:nonzero;stroke:none;stroke-width:0.1"
           id="path156" />
        <path
           d="m 1659.49,349.2 h 40.3898 v 38.85 H 1659.49 Z"
           style="fill:#f5a2a0;fill-opacity:1;fill-rule:nonzero;stroke:none;stroke-width:0.1"
           id="path158" />
        <path
           d="m 1748.71,349.2 h 40.3898 v 38.85 H 1748.71 Z"
           style="fill:#f5a2a0;fill-opacity:1;fill-rule:nonzero;stroke:none;stroke-width:0.1"
           id="path160" />
        <path
           d="m 1837.93,349.2 h 40.3898 v 38.85 H 1837.93 Z"
           style="fill:#f5a2a0;fill-opacity:1;fill-rule:nonzero;stroke:none;stroke-width:0.1"
           id="path162" />
        <path
           d="m 1927.15,349.2 h 40.3902 v 38.85 H 1927.15 Z"
           style="fill:#f5a2a0;fill-opacity:1;fill-rule:nonzero;stroke:none;stroke-width:0.1"
           id="path164" />
        <path
           d="m 2000,435.02 h -32.46 v 38.85 H 2000 v -38.85 m -72.85,0 h -48.83 v 38.85 h 48.83 v -38.85 m -89.22,0 h -48.83 v 38.85 h 48.83 v -38.85 m -89.22,0 h -48.83 v 38.85 h 48.83 v -38.85 m -89.22,0 h -48.83 v 38.85 h 48.83 v -38.85 m -89.22,0 h -48.83 v 38.85 h 48.83 v -38.85"
           style="fill:#facbca;fill-opacity:1;fill-rule:nonzero;stroke:none;stroke-width:0.1"
           id="path166" />
        <path
           d="m 1489.39,435.02 h 32.0496 v 38.85 H 1489.39 Z"
           style="fill:#f5a2a0;fill-opacity:1;fill-rule:nonzero;stroke:none;stroke-width:0.1"
           id="path168" />
        <path
           d="m 1570.27,435.02 h 40.3902 v 38.85 H 1570.27 Z"
           style="fill:#f5a2a0;fill-opacity:1;fill-rule:nonzero;stroke:none;stroke-width:0.1"
           id="path170" />
        <path
           d="m 1659.49,435.02 h 40.3898 v 38.85 H 1659.49 Z"
           style="fill:#f5a2a0;fill-opacity:1;fill-rule:nonzero;stroke:none;stroke-width:0.1"
           id="path172" />
        <path
           d="m 1748.71,435.02 h 40.3898 v 38.85 H 1748.71 Z"
           style="fill:#f5a2a0;fill-opacity:1;fill-rule:nonzero;stroke:none;stroke-width:0.1"
           id="path174" />
        <path
           d="m 1837.93,435.02 h 40.3898 v 38.85 H 1837.93 Z"
           style="fill:#f5a2a0;fill-opacity:1;fill-rule:nonzero;stroke:none;stroke-width:0.1"
           id="path176" />
        <path
           d="m 1927.15,435.02 h 40.3902 v 38.85 H 1927.15 Z"
           style="fill:#f5a2a0;fill-opacity:1;fill-rule:nonzero;stroke:none;stroke-width:0.1"
           id="path178" />
        <path
           d="m 1912.98,543.96 v -70.09 h -328.54 v 70.09 h 328.54"
           style="fill:#aa0000;fill-opacity:1;fill-rule:nonzero;stroke:none;stroke-width:0.1"
           id="path180" />
        <path
           d="m 1912.98,478.53 v -4.66 h -328.54 v 4.66 h 328.54"
           style="fill:#d40000;fill-opacity:1;fill-rule:nonzero;stroke:none;stroke-width:0.1"
           id="path182" />
        <path
           d="m 1621.52,543.96 v -65.43 h -12.88 v 65.43 h 12.88"
           style="fill:#ffffff;fill-opacity:1;fill-rule:nonzero;stroke:none;stroke-width:0.1"
           id="path184" />
        <path
           d="m 1653.32,543.96 v -65.43 h -12.88 v 65.43 h 12.88"
           style="fill:#ffffff;fill-opacity:1;fill-rule:nonzero;stroke:none;stroke-width:0.1"
           id="path186" />
        <path
           d="m 1867.53,614.05 v -70.09 h -328.54 v 70.09 h 328.54"
           style="fill:#ff5555;fill-opacity:1;fill-rule:nonzero;stroke:none;stroke-width:0.1"
           id="path188" />
        <path
           d="m 1867.53,548.62 v -4.66 h -328.54 v 4.66 h 328.54"
           style="fill:#212121;fill-opacity:1;fill-rule:nonzero;stroke:none;stroke-width:0.1"
           id="path190" />
        <path
           d="m 1576.07,614.05 v -65.43 h -12.89 v 65.43 h 12.89"
           style="fill:#ffffff;fill-opacity:1;fill-rule:nonzero;stroke:none;stroke-width:0.1"
           id="path192" />
        <path
           d="m 1607.87,614.05 v -65.43 h -12.88 v 65.43 h 12.88"
           style="fill:#ffffff;fill-opacity:1;fill-rule:nonzero;stroke:none;stroke-width:0.1"
           id="path194" />
        <path
           d="m 812.341,1597.37 c 0,0 -14.712,203.07 170.733,220.13 156.886,14.43 204.816,-110.48 207.846,-208.73 0,0 -138.84,37.72 -378.579,-11.4"
           style="fill:#009799;fill-opacity:1;fill-rule:nonzero;stroke:none;stroke-width:0.1"
           id="path206" />
        <path
           d="m 982.43,1805.46 c 107.87,9.92 165.96,-43.81 193.73,-110.81 -24.04,71.8 -80.51,134.2 -193.086,123.85 -96.612,-8.89 -138.895,-69.26 -157.239,-124.1 21.715,51.68 66.155,102.74 156.595,111.06"
           style="fill:#ffffff;fill-opacity:1;fill-rule:nonzero;stroke:none;stroke-width:0.1"
           id="path208" />
        <path
           d="m 1190.92,1608.77 c -0.8,26.09 -4.78,54.06 -13.11,80.8 -183.158,12.55 -302.453,-15.02 -361.767,-34.88 -5.478,-32.76 -3.702,-57.32 -3.702,-57.32 239.739,49.12 378.579,11.4 378.579,11.4"
           style="fill:#05afaf;fill-opacity:1;fill-rule:nonzero;stroke:none;stroke-width:0.1"
           id="path210" />
        <path
           d="m 1332.31,1593.35 c 2.62,-40.71 -141.75,-83.15 -322.46,-94.78 -180.716,-11.63 -329.336,11.94 -331.957,52.65 -2.621,40.71 141.749,83.15 322.457,94.78 180.72,11.64 329.34,-11.94 331.96,-52.65"
           style="fill:#008282;fill-opacity:1;fill-rule:nonzero;stroke:none;stroke-width:0.1"
           id="path212" />
        <path
           d="m 1182.02,1574.1527 c 0,0 -69.9,38.5649 -182.02,34.2851 -96.896,-3.6913 -184.245,-54.7633 -184.245,-54.7633 3.684,-46.6119 -0.276,-143.4606 -55.568,-216.1684 -64.472,-84.7782 -116.5,-145.5958 -15.187,-275.8282 l 515.3,16.2458 c 0,0 72.64,61.2161 44.99,141.6577 -23.63,68.7222 -131.03,104.4498 -123.27,354.5713"
           style="fill:#784421;fill-opacity:1;fill-rule:nonzero;stroke:#a05a2c;stroke-width:0.0974135"
           id="path214" />
        <path
           d="m 1000,1160.66 c -79.739,0 -233.773,-47.28 -288.689,-74.91 V 331.74 H 1000 1288.69 v 754.01 c -54.92,27.63 -208.95,74.91 -288.69,74.91"
           style="fill:#f4e3d7;fill-opacity:1;fill-rule:nonzero;stroke:none;stroke-width:0.1"
           id="path216" />
        <path
           d="m 936.578,1003.15 c 0,0 59.642,54.15 126.842,0 0,0 3.05,77.2 -63.42,81.06 -66.474,3.87 -63.422,-81.06 -63.422,-81.06"
           style="fill:#cae5e3;fill-opacity:1;fill-rule:nonzero;stroke:none;stroke-width:0.1"
           id="path218" />
        <path
           d="m 903.222,1147.66 c -73.68,-16.02 -155.083,-43.38 -191.911,-61.91 V 331.74 h 191.911 v 815.92"
           style="fill:#a05a2c;fill-opacity:1;fill-rule:nonzero;stroke:none;stroke-width:0.1"
           id="path220" />
        <path
           d="m 774.836,876.86 h 79.738 v 37.45 h -79.738 v -37.45"
           style="fill:#ffffff;fill-opacity:1;fill-rule:nonzero;stroke:none;stroke-width:0.1"
           id="path222" />
        <path
           d="m 837.27,793.58 -21.183,-15.27 -23.947,15.27 v 61.63 h 45.13 v -61.63"
           style="fill:#ffffff;fill-opacity:1;fill-rule:nonzero;stroke:none;stroke-width:0.1"
           id="path224" />
        <path
           d="m 829.975,826.05 h -30.238 v 22.29 h 30.238 v -22.29"
           style="fill:#a05a2c;fill-opacity:1;fill-rule:nonzero;stroke:none;stroke-width:0.1"
           id="path226" />
        <path
           d="m 840.509,963.64 c 0,-14.25 -11.553,-25.81 -25.804,-25.81 -14.251,0 -25.803,11.56 -25.803,25.81 0,14.25 11.552,25.8 25.803,25.8 14.251,0 25.804,-11.55 25.804,-25.8"
           style="fill:#ffffff;fill-opacity:1;fill-rule:nonzero;stroke:none;stroke-width:0.1"
           id="path228" />
        <path
           d="m 1096.78,1147.66 c 73.68,-16.02 155.08,-43.38 191.91,-61.91 V 331.74 h -191.91 v 815.92"
           style="fill:#a05a2c;fill-opacity:1;fill-rule:nonzero;stroke:none;stroke-width:0.1"
           id="path230" />
        <path
           d="m 1163.68,881.37 c 0,-7.07 -5.73,-12.79 -12.8,-12.79 -7.06,0 -12.79,5.72 -12.79,12.79 0,7.06 5.73,12.79 12.79,12.79 7.07,0 12.8,-5.73 12.8,-12.79"
           style="fill:#ffffff;fill-opacity:1;fill-rule:nonzero;stroke:none;stroke-width:0.1"
           id="path232" />
        <path
           d="m 1201.96,881.37 c 0,-7.07 -5.73,-12.79 -12.79,-12.79 -7.07,0 -12.79,5.72 -12.79,12.79 0,7.06 5.72,12.79 12.79,12.79 7.06,0 12.79,-5.73 12.79,-12.79"
           style="fill:#ffffff;fill-opacity:1;fill-rule:nonzero;stroke:none;stroke-width:0.1"
           id="path234" />
        <path
           d="m 1201.28,938.47 -29.34,-16.59 -33.17,16.59 v 66.92 h 62.51 v -66.92"
           style="fill:#ffffff;fill-opacity:1;fill-rule:nonzero;stroke:none;stroke-width:0.1"
           id="path236" />
        <path
           d="m 1194.63,985.78 h -49.21 v 12.46 h 49.21 v -12.46"
           style="fill:#a05a2c;fill-opacity:1;fill-rule:nonzero;stroke:none;stroke-width:0.1"
           id="path238" />
        <path
           d="m 1194.63,966.08 h -49.21 v 12.46 h 49.21 v -12.46"
           style="fill:#a05a2c;fill-opacity:1;fill-rule:nonzero;stroke:none;stroke-width:0.1"
           id="path240" />
        <path
           d="m 1201.96,825.89 h -63.87 v 12.9 h 63.87 v -12.9"
           style="fill:#ffffff;fill-opacity:1;fill-rule:nonzero;stroke:none;stroke-width:0.1"
           id="path242" />
        <path
           d="m 1201.96,802.97 h -63.87 v 12.89 h 63.87 v -12.89"
           style="fill:#ffffff;fill-opacity:1;fill-rule:nonzero;stroke:none;stroke-width:0.1"
           id="path244" />
        <path
           d="m 1201.96,780.05 h -63.87 v 12.89 h 63.87 v -12.89"
           style="fill:#ffffff;fill-opacity:1;fill-rule:nonzero;stroke:none;stroke-width:0.1"
           id="path246" />
        <path
           d="m 1102.71,1133.8 c -13.81,48.82 -37.28,54.49 -37.28,54.49 H 1000 934.574 c 0,0 -23.471,-5.67 -37.286,-54.49 -13.816,-48.81 39.29,-130.65 39.29,-130.65 0,0 10.35,76.46 63.422,81.06 53.07,-4.6 63.42,-81.06 63.42,-81.06 0,0 53.11,81.84 39.29,130.65"
           style="fill:#ffffff;fill-opacity:1;fill-rule:nonzero;stroke:none;stroke-width:0.1"
           id="path248" />
        <path
           d="m 711.311,1085.75 c 0,0 -18.34,-9.16 -28.797,-20.26 C 637.691,1017.9 560.325,726.86 560.325,726.86 l 150.986,-35.92 v 394.81"
           style="fill:#f4e3d7;fill-opacity:1;fill-rule:nonzero;stroke:none;stroke-width:0.1"
           id="path250" />
        <path
           d="m 560.325,726.86 c 0,0 99.47,12.84 150.986,-35.92 V 639.36 L 510.61,507.98 v 56.15 l 49.715,162.73"
           style="fill:#f7bdaa;fill-opacity:1;fill-rule:nonzero;stroke:none;stroke-width:0.1"
           id="path252" />
        <path
           d="m 560.325,726.86 c 0,0 77.614,-0.33 145.585,-91.04 l 5.401,3.54 v 51.58 c -51.516,48.76 -150.986,35.92 -150.986,35.92"
           style="fill:#dd8c7f;fill-opacity:1;fill-rule:nonzero;stroke:none;stroke-width:0.1"
           id="path254" />
        <path
           d="m 1288.69,1085.75 c 0,0 18.34,-9.16 28.8,-20.26 44.82,-47.59 122.19,-338.63 122.19,-338.63 l -150.99,-35.92 v 394.81"
           style="fill:#f4e3d7;fill-opacity:1;fill-rule:nonzero;stroke:none;stroke-width:0.1"
           id="path256" />
        <path
           d="m 1439.68,726.86 c 0,0 -99.48,12.84 -150.99,-35.92 v -51.58 l 200.7,-131.38 v 56.15 l -49.71,162.73"
           style="fill:#f7bdaa;fill-opacity:1;fill-rule:nonzero;stroke:none;stroke-width:0.1"
           id="path258" />
        <path
           d="m 1439.68,726.86 c 0,0 -77.62,-0.33 -145.59,-91.04 l -5.4,3.54 v 51.58 c 51.51,48.76 150.99,35.92 150.99,35.92"
           style="fill:#dd8c7f;fill-opacity:1;fill-rule:nonzero;stroke:none;stroke-width:0.1"
           id="path260" />
        <path
           d="M 1310.5,0 H 689.504 l 21.807,331.74 H 1288.69 L 1310.5,0"
           style="fill:#009799;fill-opacity:1;fill-rule:nonzero;stroke:none;stroke-width:0.1"
           id="path262" />
        <path
           d="M 919.71,102.38 1018.34,88.3 1025.94,0 H 963.771 L 984.178,69.4902 919.71,102.38"
           style="fill:#006b68;fill-opacity:1;fill-rule:nonzero;stroke:none;stroke-width:0.1"
           id="path264" />
        <path
           d="m 1302.84,102.38 -14.15,229.36 H 711.311 L 698.763,128.31 1302.84,102.38"
           style="fill:#006b68;fill-opacity:1;fill-rule:nonzero;stroke:none;stroke-width:0.1"
           id="path266" />
        <path
           d="M 1478.49,164.69 H 521.513 c -6.021,0 -10.903,4.88 -10.903,10.91 v 464.86 c 0,6.02 4.882,10.9 10.903,10.9 h 956.977 c 6.02,0 10.9,-4.88 10.9,-10.9 V 175.6 c 0,-6.03 -4.88,-10.91 -10.9,-10.91"
           style="fill:#008000;fill-opacity:1;fill-rule:nonzero;stroke:none;stroke-width:0.1"
           id="path268" />
        <path
           d="M 1478.49,651.36 H 521.513 c -6.022,0 -10.903,-4.88 -10.903,-10.9 h 978.78 c 0,6.02 -4.88,10.9 -10.9,10.9"
           style="fill:#ffffff;fill-opacity:1;fill-rule:nonzero;stroke:none;stroke-width:0.1"
           id="path270" />
        <path
           d="m 814.705,224.96 -241.299,10 851.024,-7.04 -609.725,-2.96"
           style="fill:#7a584f;fill-opacity:1;fill-rule:nonzero;stroke:none;stroke-width:0.1"
           id="path272" />
        <path
           d="m 560.324,592.64 13.082,-357.68 851.024,-7.04 V 592.64 H 560.324"
           style="fill:#ffffff;fill-opacity:1;fill-rule:nonzero;stroke:none;stroke-width:0.1"
           id="path274" />
        <path
           d="m 586.914,572.3 c 0,-4.74 -3.849,-8.59 -8.596,-8.59 -4.748,0 -8.596,3.85 -8.596,8.59 0,4.75 3.848,8.6 8.596,8.6 4.747,0 8.596,-3.85 8.596,-8.6"
           style="fill:#008000;fill-opacity:1;fill-rule:nonzero;stroke:none;stroke-width:0.1"
           id="path276" />
        <path
           d="m 607.177,260.38 c 0,-4.74 -3.849,-8.59 -8.597,-8.59 -4.747,0 -8.596,3.85 -8.596,8.59 0,4.75 3.849,8.6 8.596,8.6 4.748,0 8.597,-3.85 8.597,-8.6"
           style="fill:#008000;fill-opacity:1;fill-rule:nonzero;stroke:none;stroke-width:0.1"
           id="path278" />
        <path
           d="m 1411.71,251.79 c 0,-4.75 -3.85,-8.6 -8.6,-8.6 -4.75,0 -8.6,3.85 -8.6,8.6 0,4.75 3.85,8.59 8.6,8.59 4.75,0 8.6,-3.84 8.6,-8.59"
           style="fill:#008000;fill-opacity:1;fill-rule:nonzero;stroke:none;stroke-width:0.1"
           id="path280" />
        <path
           d="m 1411.71,572.3 c 0,-4.74 -3.85,-8.59 -8.6,-8.59 -4.75,0 -8.6,3.85 -8.6,8.59 0,4.75 3.85,8.6 8.6,8.6 4.75,0 8.6,-3.85 8.6,-8.6"
           style="fill:#008000;fill-opacity:1;fill-rule:nonzero;stroke:none;stroke-width:0.1"
           id="path282" />
        <path
           d="m 747.245,464.33 -9.222,-10.6 c -11.989,8.91 -23.827,13.37 -35.506,13.37 -7.687,0 -14.295,-1.85 -19.828,-5.53 -5.533,-3.69 -9.723,-8.15 -12.565,-13.38 -2.846,-5.22 -5.072,-11.83 -6.686,-19.82 -1.614,-8 -2.616,-14.91 -2.997,-20.75 -0.386,-5.85 -0.577,-12.68 -0.577,-20.52 0,-7.69 1.42,-16.41 4.266,-26.17 2.842,-9.76 7.644,-18.87 14.409,-27.32 6.762,-8.46 14.601,-12.68 23.517,-12.68 9.684,0 24.514,5.07 44.498,15.21 1.995,-2.92 4.61,-7.76 7.838,-14.52 -19.367,-13.37 -36.658,-20.06 -51.875,-20.06 -9.838,0 -18.83,3 -26.975,8.99 -8.149,6 -14.565,13.6 -19.251,22.83 -4.691,9.22 -8.301,18.86 -10.837,28.93 -2.536,10.07 -3.804,19.63 -3.804,28.71 0,9.99 0.768,19.71 2.306,29.16 1.534,9.45 4.15,18.94 7.839,28.47 3.689,9.53 9.258,17.22 16.715,23.06 7.454,5.84 16.33,8.76 26.629,8.76 8.913,0 18.135,-1.54 27.667,-4.61 9.529,-3.08 17.674,-6.92 24.439,-11.53"
           style="fill:#9b5942;fill-opacity:1;fill-rule:nonzero;stroke:none;stroke-width:0.1"
           id="path284" />
        <path
           d="m 1112.32,312.17 -21.29,0.46 c -5.71,5.68 -13.54,14.87 -23.49,27.55 -9.95,12.68 -16.23,20.48 -18.86,23.4 v -47.5 c -1.36,-4.61 -4.03,-6.91 -7.98,-6.91 -2.73,0 -5.36,1.11 -7.86,3.34 -2.51,2.23 -4.07,4.96 -4.67,8.19 0.45,15.83 0.68,42.11 0.68,78.85 0,36.73 0.3,63.09 0.91,79.08 l 13.88,-3 c 0.15,-6.15 0.41,-18.75 0.79,-37.81 0.38,-19.06 0.72,-33.28 1.03,-42.65 l 56.24,41.04 3.93,-10.38 c -14.67,-10.61 -31.88,-25.59 -51.64,-44.96 4.16,-4.46 13.38,-15.33 27.66,-32.62 14.27,-17.29 24.49,-29.32 30.67,-36.08"
           style="fill:#9b5942;fill-opacity:1;fill-rule:nonzero;stroke:none;stroke-width:0.1"
           id="path286" />
        <path
           d="m 1126.61,430.67 10.61,-2.3 c 1.23,-12.61 2.3,-32.4 3.23,-59.37 0.92,-26.98 1.53,-43.69 1.84,-50.15 -1.38,-4.76 -4.07,-7.15 -8.07,-7.15 -2.77,0 -5.42,1.12 -7.95,3.35 -2.54,2.22 -4.12,4.95 -4.73,8.18 0.31,6.3 0.92,22.71 1.85,49.23 0.92,26.51 1.99,45.91 3.22,58.21 z m 3.23,41.27 c 4.15,0 7.61,-1.81 10.38,-5.42 2.76,-3.61 4.15,-7.72 4.15,-12.33 0,-3.38 -0.81,-6.11 -2.43,-8.19 -1.61,-2.07 -3.8,-3.11 -6.57,-3.11 -4.3,0 -7.68,1.77 -10.14,5.3 -2.46,3.54 -3.69,7.69 -3.69,12.45 0,3.38 0.73,6.11 2.19,8.19 1.46,2.07 3.49,3.11 6.11,3.11"
           style="fill:#9b5942;fill-opacity:1;fill-rule:nonzero;stroke:none;stroke-width:0.1"
           id="path288" />
        <path
           d="m 1178.03,383.87 c 20.9,5.99 38.04,12.29 51.41,18.9 -1.08,5.08 -2.54,8.77 -4.38,11.07 -1.84,2.31 -4.61,3.46 -8.3,3.46 -9.38,0 -17.87,-3.23 -25.48,-9.68 -7.6,-6.46 -12.02,-14.38 -13.25,-23.75 z m 78.16,-49.34 2.3,-10.15 c -6.76,-2.46 -16.79,-5.18 -30.09,-8.18 -13.29,-3 -23.17,-4.5 -29.62,-4.5 -6.61,0 -12.38,2.2 -17.3,6.58 -4.92,4.38 -8.61,9.99 -11.06,16.83 -2.46,6.83 -4.27,13.6 -5.42,20.29 -1.15,6.68 -1.73,13.25 -1.73,19.71 0,38.42 17.37,57.64 52.11,57.64 8.3,0 15.6,-2.65 21.9,-7.96 6.3,-5.3 9.45,-12.18 9.45,-20.63 0,-4.61 -1.27,-8.69 -3.8,-12.22 -2.54,-3.54 -5.61,-6.34 -9.22,-8.42 -3.62,-2.07 -8.23,-3.96 -13.84,-5.65 -5.61,-1.69 -10.57,-2.92 -14.87,-3.69 -4.3,-0.77 -9.45,-1.61 -15.44,-2.53 -6,-0.92 -10.15,-1.62 -12.46,-2.08 0.16,-4.46 0.43,-8.37 0.81,-11.75 0.38,-3.39 1.15,-7.04 2.31,-10.96 1.15,-3.92 2.68,-7.14 4.61,-9.68 1.92,-2.54 4.57,-4.65 7.95,-6.34 3.38,-1.69 7.38,-2.54 11.99,-2.54 5.53,0 12.3,0.5 20.29,1.5 7.99,1 15.1,2.04 21.33,3.12 6.22,1.07 9.49,1.61 9.8,1.61"
           style="fill:#9b5942;fill-opacity:1;fill-rule:nonzero;stroke:none;stroke-width:0.1"
           id="path290" />
        <path
           d="m 1338.73,423.29 -2.31,-9.22 c -14.91,6.15 -26.51,9.22 -34.81,9.22 -7.38,0 -12.57,-1.11 -15.57,-3.34 -2.99,-2.23 -4.49,-6.96 -4.49,-14.18 0,-5.84 2.11,-10.68 6.34,-14.52 4.22,-3.85 9.33,-6.88 15.33,-9.11 5.99,-2.23 12.02,-4.61 18.1,-7.15 6.07,-2.53 11.22,-6.26 15.45,-11.18 4.22,-4.92 6.34,-10.99 6.34,-18.21 0,-9.84 -3.62,-18.45 -10.84,-25.83 -7.23,-7.37 -16.6,-11.14 -28.13,-11.29 -8.45,0 -16.37,1.78 -23.75,5.35 -7.37,3.56 -13.22,8.06 -17.52,13.49 l 6.69,6.98 c 1.84,-0.77 4.57,-2 8.18,-3.69 3.61,-1.69 6.19,-2.81 7.73,-3.34 1.53,-0.54 3.8,-1.12 6.8,-1.73 2.99,-0.62 6.18,-0.92 9.57,-0.92 7.22,0 13.14,1.6 17.75,4.8 4.61,3.21 6.92,7.72 6.92,13.52 0,3.82 -1.08,7.07 -3.23,9.75 -2.16,2.67 -5,4.85 -8.53,6.52 -3.54,1.68 -7.42,3.29 -11.65,4.83 -4.23,1.54 -8.45,3.26 -12.68,5.19 -4.23,1.92 -8.11,4.22 -11.64,6.91 -3.54,2.69 -6.38,6.35 -8.53,10.96 -2.15,4.61 -3.23,10.06 -3.23,16.37 0,9.22 2.5,16.94 7.5,23.17 4.99,6.22 12.02,9.33 21.09,9.33 3.54,0 7.53,-0.54 11.99,-1.61 4.46,-1.08 7.99,-2.07 10.61,-3 2.61,-0.92 6.49,-2.42 11.64,-4.49 5.15,-2.08 8.1,-3.27 8.88,-3.58"
           style="fill:#9b5942;fill-opacity:1;fill-rule:nonzero;stroke:none;stroke-width:0.1"
           id="path292" />
        <path
           d="m 761.135,369.53 c 0,7.06 0.944,14.91 2.837,23.56 1.888,8.65 4.724,17.74 8.51,27.27 3.781,9.52 9.454,17.47 17.02,23.82 7.562,6.35 16.353,9.53 26.365,9.53 21.359,0 38.488,-7.64 51.395,-22.9 12.9,-15.26 19.355,-32.25 19.355,-50.95 0,-7.94 -1.058,-15.84 -3.17,-23.69 -2.117,-7.86 -5.397,-15.58 -9.844,-23.16 -4.454,-7.59 -10.847,-13.9 -19.19,-18.93 -8.344,-5.03 -18.079,-7.89 -29.202,-8.6 -20.472,2.12 -36.266,9.04 -47.389,20.78 -11.128,11.73 -16.687,26.16 -16.687,43.27"
           style="fill:#9b5942;fill-opacity:1;fill-rule:nonzero;stroke:none;stroke-width:0.1"
           id="path294" />
        <path
           d="m 804.938,420.15 c 0,-4 -3.242,-7.24 -7.24,-7.24 -3.999,0 -7.241,3.24 -7.241,7.24 0,4 3.242,7.24 7.241,7.24 3.998,0 7.24,-3.24 7.24,-7.24"
           style="fill:#4e342e;fill-opacity:1;fill-rule:nonzero;stroke:none;stroke-width:0.1"
           id="path296" />
        <path
           d="m 850.192,356.46 c 0,-4 -3.242,-7.24 -7.241,-7.24 -3.999,0 -7.24,3.24 -7.24,7.24 0,3.99 3.241,7.24 7.24,7.24 3.999,0 7.241,-3.25 7.241,-7.24"
           style="fill:#4e342e;fill-opacity:1;fill-rule:nonzero;stroke:none;stroke-width:0.1"
           id="path298" />
        <path
           d="m 854.823,405.82 c 0,-6.55 -5.315,-11.87 -11.872,-11.87 -6.556,0 -11.872,5.32 -11.872,11.87 0,6.56 5.316,11.88 11.872,11.88 6.557,0 11.872,-5.32 11.872,-11.88"
           style="fill:#4e342e;fill-opacity:1;fill-rule:nonzero;stroke:none;stroke-width:0.1"
           id="path300" />
        <path
           d="m 814.705,379.59 c 0,-3.36 -2.725,-6.08 -6.087,-6.08 -3.362,0 -6.087,2.72 -6.087,6.08 0,3.37 2.725,6.09 6.087,6.09 3.362,0 6.087,-2.72 6.087,-6.09"
           style="fill:#4e342e;fill-opacity:1;fill-rule:nonzero;stroke:none;stroke-width:0.1"
           id="path302" />
        <path
           d="m 823.152,339.53 c 0,-1.99 -1.61,-3.6 -3.596,-3.6 -1.987,0 -3.597,1.61 -3.597,3.6 0,1.99 1.61,3.6 3.597,3.6 1.986,0 3.596,-1.61 3.596,-3.6"
           style="fill:#4e342e;fill-opacity:1;fill-rule:nonzero;stroke:none;stroke-width:0.1"
           id="path304" />
        <path
           d="m 858.42,381.09 c 0,-1.98 -1.611,-3.59 -3.597,-3.59 -1.987,0 -3.597,1.61 -3.597,3.59 0,1.99 1.61,3.6 3.597,3.6 1.986,0 3.597,-1.61 3.597,-3.6"
           style="fill:#4e342e;fill-opacity:1;fill-rule:nonzero;stroke:none;stroke-width:0.1"
           id="path306" />
        <path
           d="m 796.544,349.22 c 0,-3.37 -2.725,-6.09 -6.087,-6.09 -3.362,0 -6.087,2.72 -6.087,6.09 0,3.36 2.725,6.08 6.087,6.08 3.362,0 6.087,-2.72 6.087,-6.08"
           style="fill:#4e342e;fill-opacity:1;fill-rule:nonzero;stroke:none;stroke-width:0.1"
           id="path308" />
        <path
           d="m 998.048,414.9 c -13.261,-11.05 -20.758,0.28 -20.758,0.28 -13.947,-5.75 -22.142,7.73 -19.352,13.25 -17.551,-0.87 -11.742,14.46 -13.125,14.46 -9.357,0 -17.574,-2.94 -24.641,-8.83 -7.072,-5.89 -12.374,-13.25 -15.907,-22.09 -3.539,-8.83 -6.19,-17.26 -7.954,-25.27 -1.769,-8.02 -2.652,-15.3 -2.652,-21.84 0,-15.87 5.196,-29.24 15.597,-40.12 10.395,-10.88 25.157,-17.3 44.29,-19.26 10.397,0.65 19.495,3.31 27.293,7.97 7.798,4.67 13.773,10.51 17.935,17.55 4.156,7.03 7.226,14.19 9.206,21.47 1.97,7.28 2.96,14.6 2.96,21.96 0,14.62 -4.31,28.11 -12.892,40.47"
           style="fill:#9b5942;fill-opacity:1;fill-rule:nonzero;stroke:none;stroke-width:0.1"
           id="path310" />
        <path
           d="m 924.688,387.5 c 0,-3.71 -3.005,-6.72 -6.712,-6.72 -3.707,0 -6.713,3.01 -6.713,6.72 0,3.7 3.006,6.71 6.713,6.71 3.707,0 6.712,-3.01 6.712,-6.71"
           style="fill:#4e342e;fill-opacity:1;fill-rule:nonzero;stroke:none;stroke-width:0.1"
           id="path312" />
        <path
           d="m 989.518,342.57 c 0,-4.89 -3.966,-8.86 -8.858,-8.86 -4.893,0 -8.859,3.97 -8.859,8.86 0,4.89 3.966,8.86 8.859,8.86 4.892,0 8.858,-3.97 8.858,-8.86"
           style="fill:#4e342e;fill-opacity:1;fill-rule:nonzero;stroke:none;stroke-width:0.1"
           id="path314" />
        <path
           d="m 957.955,369.51 c 0,-3.12 -2.527,-5.64 -5.643,-5.64 -3.117,0 -5.643,2.52 -5.643,5.64 0,3.12 2.526,5.64 5.643,5.64 3.116,0 5.643,-2.52 5.643,-5.64"
           style="fill:#4e342e;fill-opacity:1;fill-rule:nonzero;stroke:none;stroke-width:0.1"
           id="path316" />
        <path
           d="m 953.928,336.36 c 0,-1.85 -1.492,-3.34 -3.334,-3.34 -1.841,0 -3.334,1.49 -3.334,3.34 0,1.84 1.493,3.33 3.334,3.33 1.842,0 3.334,-1.49 3.334,-3.33"
           style="fill:#4e342e;fill-opacity:1;fill-rule:nonzero;stroke:none;stroke-width:0.1"
           id="path318" />
        <path
           d="m 938.146,415.16 c 0,-1.84 -1.493,-3.34 -3.334,-3.34 -1.842,0 -3.335,1.5 -3.335,3.34 0,1.84 1.493,3.33 3.335,3.33 1.841,0 3.334,-1.49 3.334,-3.33"
           style="fill:#4e342e;fill-opacity:1;fill-rule:nonzero;stroke:none;stroke-width:0.1"
           id="path320" />
        <path
           d="m 992.853,382.5 c 0,-1.84 -1.493,-3.33 -3.335,-3.33 -1.841,0 -3.334,1.49 -3.334,3.33 0,1.84 1.493,3.34 3.334,3.34 1.842,0 3.335,-1.5 3.335,-3.34"
           style="fill:#4e342e;fill-opacity:1;fill-rule:nonzero;stroke:none;stroke-width:0.1"
           id="path322" />
        <path
           d="m 929.262,345.33 c 0,-3.11 -2.527,-5.64 -5.643,-5.64 -3.117,0 -5.643,2.53 -5.643,5.64 0,3.12 2.526,5.65 5.643,5.65 3.116,0 5.643,-2.53 5.643,-5.65"
           style="fill:#4e342e;fill-opacity:1;fill-rule:nonzero;stroke:none;stroke-width:0.1"
           id="path324" />
        <path
           d="m 969.357,396.51 c 0,-3.11 -2.526,-5.64 -5.643,-5.64 -3.116,0 -5.643,2.53 -5.643,5.64 0,3.12 2.527,5.65 5.643,5.65 3.117,0 5.643,-2.53 5.643,-5.65"
           style="fill:#4e342e;fill-opacity:1;fill-rule:nonzero;stroke:none;stroke-width:0.1"
           id="path326" />
        <path
           d="m 899.702,527.79 c -3.485,-0.31 -5.641,-0.53 -6.592,-0.67 l -1.182,-0.18 1.215,-4.96 6.536,-1.22 v -3.26 c -0.064,-0.08 -0.166,-0.21 -0.33,-0.4 -0.357,-0.42 -0.917,-0.97 -1.661,-1.63 -0.751,-0.66 -1.599,-1.31 -2.524,-1.92 -0.884,-0.59 -1.978,-1.11 -3.25,-1.54 -1.245,-0.42 -2.541,-0.64 -3.85,-0.64 -2.942,0 -5.291,1.58 -7.181,4.84 -1.975,3.4 -2.976,7.88 -2.976,13.3 0,2.33 0.057,4.39 0.171,6.11 0.111,1.7 0.408,3.75 0.883,6.11 0.463,2.29 1.103,4.19 1.903,5.66 0.766,1.41 1.921,2.64 3.431,3.64 1.475,0.99 3.28,1.49 5.366,1.49 3.261,0 6.64,-1.29 10.041,-3.82 l 0.811,-0.6 4.244,4.88 -1.013,0.69 c -2.112,1.44 -4.682,2.66 -7.639,3.61 -2.966,0.96 -5.882,1.44 -8.666,1.44 -3.337,0 -6.261,-0.96 -8.692,-2.87 -2.39,-1.87 -4.2,-4.36 -5.378,-7.41 -1.135,-2.93 -1.949,-5.89 -2.419,-8.79 -0.47,-2.89 -0.709,-5.9 -0.709,-8.96 0,-18.13 6.043,-27.33 17.962,-27.33 1.671,0 3.292,0.22 4.816,0.67 1.527,0.44 2.816,1 3.831,1.66 0.974,0.63 1.843,1.3 2.581,1.99 l 0.247,0.23 c 10e-4,-0.12 10e-4,-0.24 10e-4,-0.37 0,-2.39 0.043,-3.09 0.075,-3.41 l 0.122,-1.2 7.468,1.53 v 24.32 l -1.315,-0.28 c -0.576,-0.12 -2.142,-0.34 -6.327,-0.71"
           style="fill:#008000;fill-opacity:1;fill-rule:nonzero;stroke:none;stroke-width:0.1"
           id="path328" />
        <path
           d="m 914.378,556.15 c -1.143,0 -2.088,-0.48 -2.732,-1.4 -0.569,-0.8 -0.858,-1.84 -0.858,-3.09 0,-1.66 0.44,-3.13 1.306,-4.37 0.938,-1.35 2.304,-2.06 3.95,-2.06 1.167,0 2.149,0.47 2.839,1.35 0.637,0.82 0.959,1.88 0.959,3.14 0,1.62 -0.496,3.1 -1.475,4.38 -1.046,1.36 -2.388,2.05 -3.989,2.05"
           style="fill:#9b5942;fill-opacity:1;fill-rule:nonzero;stroke:none;stroke-width:0.1"
           id="path330" />
        <path
           d="m 918.661,524.1 c -0.277,8.1 -0.606,14.14 -0.977,17.95 l -0.076,0.79 -5.165,1.12 -0.122,-1.22 c -0.371,-3.7 -0.7,-9.62 -0.977,-17.6 -0.276,-7.93 -0.463,-12.91 -0.555,-14.8 l -0.006,-0.13 0.024,-0.13 c 0.23,-1.21 0.827,-2.25 1.774,-3.08 0.964,-0.85 2.012,-1.28 3.116,-1.28 0.98,0 2.735,0.38 3.477,2.94 l 0.051,0.17 -0.009,0.19 c -0.093,1.93 -0.274,6.86 -0.555,15.08"
           style="fill:#008000;fill-opacity:1;fill-rule:nonzero;stroke:none;stroke-width:0.1"
           id="path332" />
        <path
           d="m 945.507,540.97 c -1.904,1.28 -4.26,1.92 -7.002,1.92 -2.158,0 -4.56,-0.97 -7.304,-2.96 l -0.152,3.38 -5.187,1.14 -0.113,-1.23 c -0.704,-7.6 -1.509,-18.94 -2.392,-33.71 l -0.009,-0.13 0.026,-0.14 c 0.232,-1.21 0.837,-2.25 1.795,-3.08 0.974,-0.84 2.03,-1.27 3.139,-1.27 0.984,0 2.747,0.37 3.498,2.85 l 0.106,0.26 -0.089,0.31 c -0.035,0.2 -0.126,1.24 -0.214,6.78 -0.07,4.36 -0.093,8.35 -0.069,11.85 0.019,2.88 0.03,4.81 0.034,5.78 0.977,0.75 1.788,1.34 2.415,1.75 0.674,0.44 1.554,0.89 2.613,1.32 0.994,0.41 1.938,0.62 2.803,0.62 1.159,0 2.823,-0.33 3.888,-3.18 l 0.246,-0.66 4.657,-0.32 0.22,0.89 c 0.114,0.46 0.17,1.07 0.17,1.86 0,2.6 -1.036,4.61 -3.079,5.97"
           style="fill:#008000;fill-opacity:1;fill-rule:nonzero;stroke:none;stroke-width:0.1"
           id="path334" />
        <path
           d="m 950.756,555.92 -1.577,-45.72 0.023,-0.12 c 0.229,-1.21 0.827,-2.25 1.774,-3.08 0.963,-0.85 2.012,-1.28 3.115,-1.28 0.981,0 2.736,0.38 3.478,2.94 l 0.048,0.17 -1.562,45.94 -5.299,1.15"
           style="fill:#008000;fill-opacity:1;fill-rule:nonzero;stroke:none;stroke-width:0.1"
           id="path336" />
        <path
           d="m 1006.85,530.73 c -1.45,1.33 -3.07,2.59 -4.83,3.73 -1.73,1.12 -3.49,2.18 -5.236,3.16 -1.695,0.95 -3.247,1.93 -4.614,2.92 -1.293,0.93 -2.354,2.04 -3.154,3.3 -0.775,1.23 -1.15,2.56 -1.15,4.07 0,1.97 0.655,3.52 2.005,4.75 1.377,1.26 2.999,1.87 4.958,1.87 3.472,0 7.841,-0.89 12.981,-2.65 l 1.07,-0.37 1.43,4.76 -0.85,0.4 c -2.17,1.04 -4.86,2.08 -8.01,3.11 -3.222,1.05 -6.197,1.58 -8.843,1.58 -3.646,0 -6.796,-1.49 -9.362,-4.43 -2.527,-2.9 -3.809,-6.17 -3.809,-9.71 0,-2.92 0.916,-5.6 2.721,-7.99 1.739,-2.29 3.866,-4.25 6.324,-5.81 2.343,-1.49 4.731,-2.98 7.1,-4.43 2.256,-1.37 4.204,-2.98 5.789,-4.77 1.5,-1.69 2.23,-3.5 2.23,-5.51 0,-2.16 -0.79,-3.66 -2.41,-4.6 -1.789,-1.03 -4,-1.56 -6.569,-1.56 -3.689,0 -7.508,1.06 -11.353,3.14 l -1.233,0.66 -1.487,-5.89 0.547,-0.44 c 1.574,-1.26 4.107,-2.31 7.746,-3.2 3.513,-0.87 6.883,-1.31 10.016,-1.31 3.843,0 7.023,1.22 9.443,3.61 2.43,2.41 3.66,5.53 3.66,9.28 0,2.6 -0.48,4.98 -1.42,7.08 -0.94,2.1 -2.18,3.86 -3.69,5.25"
           style="fill:#008000;fill-opacity:1;fill-rule:nonzero;stroke:none;stroke-width:0.1"
           id="path338" />
        <path
           d="m 1036.63,512.34 c -0.68,0 -1.54,-0.19 -2.62,-0.6 -3.02,-0.75 -5.52,-1.13 -7.45,-1.13 -1.32,0 -2.43,0.26 -3.29,0.78 -0.85,0.51 -1.46,1.2 -1.86,2.11 -0.45,1.02 -0.76,2.08 -0.93,3.13 -0.17,1.1 -0.26,2.37 -0.26,3.79 0,3.07 0.37,5.9 1.1,8.41 0.71,2.41 2.04,4.53 3.96,6.3 1.9,1.75 4.24,2.6 7.18,2.6 1.33,0 2.96,-0.14 4.84,-0.41 l 1.11,-0.16 0.56,4.81 -0.61,0.35 c -2,1.18 -4.74,1.75 -8.4,1.75 -3.22,0 -6,-0.6 -8.25,-1.79 -2.29,-1.21 -4.07,-2.98 -5.28,-5.28 -1.16,-2.2 -1.98,-4.59 -2.44,-7.12 -0.45,-2.48 -0.67,-5.4 -0.67,-8.7 0,-5.84 0.94,-9.99 2.88,-12.68 1.98,-2.77 5.73,-4.17 11.12,-4.17 3.57,0 7.49,0.67 11.65,2 l 0.83,0.26 -0.08,0.87 c -0.29,3.24 -1.33,4.88 -3.09,4.88"
           style="fill:#008000;fill-opacity:1;fill-rule:nonzero;stroke:none;stroke-width:0.1"
           id="path340" />
        <path
           d="m 1050.53,514.22 c -1.48,2.03 -2.19,4.17 -2.19,6.55 0,1.93 0.16,4.21 0.48,6.77 0.31,2.51 1.01,5.14 2.08,7.82 0.63,1.58 1.68,3.49 3.09,3.75 2.66,-0.37 4.69,-1.76 6.21,-4.26 1.6,-2.64 2.41,-5.79 2.41,-9.36 0,-1.22 -0.17,-2.64 -0.5,-4.22 -0.33,-1.59 -0.82,-3.2 -1.46,-4.78 -0.61,-1.49 -1.45,-2.75 -2.49,-3.75 -0.96,-0.92 -1.98,-1.37 -3.14,-1.37 -1.63,0 -3.1,0.93 -4.49,2.85 z m 3.04,30.69 c -2.39,0 -4.5,-0.96 -6.28,-2.84 -1.68,-1.78 -2.96,-4.03 -3.79,-6.67 -0.8,-2.54 -1.41,-5 -1.8,-7.3 -0.41,-2.31 -0.61,-4.46 -0.61,-6.36 0,-4.71 1.24,-8.75 3.69,-12.01 2.48,-3.31 6.05,-5.28 10.59,-5.88 l 0.11,-0.01 0.12,0.01 c 2.51,0.2 4.75,1.03 6.64,2.47 1.87,1.42 3.33,3.23 4.33,5.38 0.95,2.05 1.66,4.17 2.12,6.3 0.45,2.13 0.68,4.29 0.68,6.45 0,5.1 -1.41,9.8 -4.21,13.97 -2.88,4.3 -6.79,6.49 -11.59,6.49"
           style="fill:#008000;fill-opacity:1;fill-rule:nonzero;stroke:none;stroke-width:0.1"
           id="path342" />
        <path
           d="m 1099.54,524.57 c -0.39,7.45 -0.59,12.81 -0.59,15.91 v 1.6 l -5.38,1.01 -0.13,-1.17 c -0.37,-3.58 -0.6,-8.98 -0.7,-16.04 -0.08,-6.18 -0.16,-10.34 -0.24,-12.4 -1.97,-0.71 -3.83,-1.07 -5.54,-1.07 -1.57,0 -2.88,0.36 -3.89,1.06 -1.03,0.71 -1.77,1.71 -2.27,3.06 -0.55,1.46 -0.93,2.99 -1.12,4.55 -0.2,1.59 -0.31,3.52 -0.31,5.73 0,1.28 0.06,3.17 0.18,5.64 0.11,2.55 0.17,4.3 0.17,5.33 0,1.86 -0.17,3.62 -0.51,5.22 l -0.14,0.69 -4.95,1.1 -0.18,-1.16 c -0.74,-4.98 -1.12,-10.53 -1.12,-16.48 0,-2.06 0.06,-3.94 0.17,-5.59 0.12,-1.69 0.42,-3.59 0.9,-5.66 0.48,-2.11 1.15,-3.91 1.99,-5.36 0.87,-1.52 2.13,-2.8 3.73,-3.82 1.63,-1.03 3.56,-1.56 5.76,-1.56 2.49,0 5.11,0.68 7.81,2.02 l 0.35,-1.14 0.6,-0.15 c 1.01,-0.25 1.93,-0.38 2.76,-0.38 0.97,0 1.99,0.21 3.04,0.64 l 0.75,0.29 -0.06,0.8 c -0.33,4.05 -0.69,9.88 -1.08,17.33"
           style="fill:#008000;fill-opacity:1;fill-rule:nonzero;stroke:none;stroke-width:0.1"
           id="path344" />
        <path
           d="m 1129.17,508.78 c -0.42,0.78 -1.07,2.03 -1.94,3.74 l -0.42,0.81 -0.87,-0.27 c -1.97,-0.61 -3.61,-0.92 -4.89,-0.92 -1.58,0 -2.78,0.4 -3.66,1.23 -0.91,0.85 -1.52,2.13 -1.83,3.81 -0.33,1.86 -0.54,3.75 -0.61,5.6 -0.06,1.92 -0.12,4.19 -0.17,6.82 -0.04,2.1 -0.13,3.91 -0.29,5.39 1.23,0.12 2.8,0.33 4.78,0.63 2.55,0.39 4.46,0.63 5.68,0.72 l 1.29,0.1 -1.26,5.14 -0.79,0.06 c -1.2,0.09 -2.98,0.18 -5.46,0.28 -1.78,0.07 -3.25,0.14 -4.37,0.21 0,0.7 -0.01,1.56 -0.03,2.57 -0.02,1.55 -0.05,2.97 -0.07,4.24 -0.02,1.28 -0.06,2.48 -0.1,3.6 l -0.04,0.82 -5.17,1.26 -0.09,-1.28 c -0.22,-2.94 -0.42,-6.75 -0.59,-11.35 -0.1,0 -0.19,0 -0.27,0 -0.49,0 -1.2,-0.03 -2.16,-0.11 -0.91,-0.06 -1.56,-0.1 -1.94,-0.1 -0.86,0 -1.19,0.07 -1.29,0.1 l -1.39,0.4 v -1.45 c 0,-0.1 0,-0.19 0.49,-4.9 l 0.1,-0.98 h 0.98 c 0.28,0 1.28,0.01 3,0.03 0.89,0.02 1.6,0.03 2.15,0.05 0,-0.81 -0.01,-1.88 -0.02,-3.21 -0.03,-2.14 -0.04,-3.81 -0.04,-5.01 0,-2.25 0.05,-4.25 0.14,-5.96 0.09,-1.75 0.32,-3.63 0.68,-5.59 0.36,-2 0.84,-3.68 1.43,-5 0.62,-1.41 1.52,-2.59 2.66,-3.53 1.21,-0.99 2.66,-1.5 4.3,-1.5 3.86,0 7.72,0.68 11.48,2.01 l 1.19,0.42 -0.59,1.12"
           style="fill:#008000;fill-opacity:1;fill-rule:nonzero;stroke:none;stroke-width:0.1"
           id="path346" />
        <path
           d="m 510.61,306.13 v 78.27 l 56.228,30.13 3.761,-102.83 c -19.728,-5.51 -47.517,-5.31 -59.989,-5.57"
           style="fill:#7a584f;fill-opacity:1;fill-rule:nonzero;stroke:none;stroke-width:0.1"
           id="path348" />
        <path
           d="m 570.599,311.7 -3.761,102.83 59.262,31.76 c 0,0 0.167,-106.62 -44.405,-130.34 -3.204,-1.7 -6.975,-3.1 -11.096,-4.25"
           style="fill:#b2b2b2;fill-opacity:1;fill-rule:nonzero;stroke:none;stroke-width:0.1"
           id="path350" />
        <path
           d="m 1489.39,306.13 c -13.56,0.28 -45.23,0.02 -64.96,7.14 v 105.94 l 64.96,-34.81 v -35.2 -43.07"
           style="fill:#7a584f;fill-opacity:1;fill-rule:nonzero;stroke:none;stroke-width:0.1"
           id="path352" />
        <path
           d="m 1424.43,313.27 c -2.2,0.8 -4.26,1.69 -6.12,2.68 -44.58,23.72 -44.41,130.34 -44.41,130.34 l 50.53,-27.08 V 313.27"
           style="fill:#b2b2b2;fill-opacity:1;fill-rule:nonzero;stroke:none;stroke-width:0.1"
           id="path354" />
        <path
           d="m 510.61,537.72 c 0,0 -25.147,-7.27 -32.515,-36.38 -10.066,-39.76 2.968,-123.11 14.02,-137.84 8.277,-11.04 74.508,-24.03 90.874,-19.24 26.608,7.78 56.49,117.48 39.297,150.23 -9.269,17.65 -111.676,0.47 -111.676,0.47 v 42.76"
           style="fill:#f7bdaa;fill-opacity:1;fill-rule:nonzero;stroke:none;stroke-width:0.1"
           id="path356" />
        <path
           d="m 1489.39,537.72 c 0,0 25.15,-7.27 32.51,-36.38 10.07,-39.76 -2.96,-123.11 -14.02,-137.84 -8.27,-11.04 -74.5,-24.03 -90.87,-19.24 -26.61,7.78 -56.49,117.48 -39.3,150.23 9.27,17.65 111.68,0.47 111.68,0.47 v 42.76"
           style="fill:#f7bdaa;fill-opacity:1;fill-rule:nonzero;stroke:none;stroke-width:0.1"
           id="path360" />
        <path
           d="m 1489.39,530.84 v 6.88 c 0,0 25.15,-7.27 32.51,-36.38 8.21,-32.42 1.06,-93.83 -7.85,-123.38 7.17,43.36 9.83,94.42 2.2,119.04 -4.72,15.21 -16.47,26.46 -26.86,33.84"
           style="fill:#ffffff;fill-opacity:1;fill-rule:nonzero;stroke:none;stroke-width:0.1"
           id="path362" />
        <path
           d="m 1306,651.36 h -102 v 107.71 h 102 V 651.36"
           style="fill:#ffb74d;fill-opacity:1;fill-rule:nonzero;stroke:none;stroke-width:0.1"
           id="path364" />
        <path
           d="m 1306,733.79 h -94.29 V 746.2 H 1306 v -12.41"
           style="fill:#ffffff;fill-opacity:1;fill-rule:nonzero;stroke:none;stroke-width:0.1"
           id="path366" />
        <path
           d="m 1306,705.39 h -94.29 V 717.8 H 1306 v -12.41"
           style="fill:#ffffff;fill-opacity:1;fill-rule:nonzero;stroke:none;stroke-width:0.1"
           id="path368" />
        <path
           d="M 1211.71,651.72 H 1204 v 107.35 h 7.71 V 651.72"
           style="fill:#212121;fill-opacity:1;fill-rule:nonzero;stroke:none;stroke-width:0.1"
           id="path370" />
        <path
           d="m 1204,651.36 h -102 v 107.71 h 102 V 651.36"
           style="fill:#ffb74d;fill-opacity:1;fill-rule:nonzero;stroke:none;stroke-width:0.1"
           id="path372" />
        <path
           d="m 1204,733.79 h -94.29 V 746.2 H 1204 v -12.41"
           style="fill:#ffffff;fill-opacity:1;fill-rule:nonzero;stroke:none;stroke-width:0.1"
           id="path374" />
        <path
           d="m 1204,705.39 h -94.29 V 717.8 H 1204 v -12.41"
           style="fill:#ffffff;fill-opacity:1;fill-rule:nonzero;stroke:none;stroke-width:0.1"
           id="path376" />
        <path
           d="M 1109.71,651.72 H 1102 v 107.35 h 7.71 V 651.72"
           style="fill:#212121;fill-opacity:1;fill-rule:nonzero;stroke:none;stroke-width:0.1"
           id="path378" />
        <path
           d="m 1102,651.36 h -102 v 107.71 h 102 V 651.36"
           style="fill:#ffb74d;fill-opacity:1;fill-rule:nonzero;stroke:none;stroke-width:0.1"
           id="path380" />
        <path
           d="m 1102,733.79 h -94.29 V 746.2 H 1102 v -12.41"
           style="fill:#ffffff;fill-opacity:1;fill-rule:nonzero;stroke:none;stroke-width:0.1"
           id="path382" />
        <path
           d="m 1102,705.39 h -94.29 V 717.8 H 1102 v -12.41"
           style="fill:#ffffff;fill-opacity:1;fill-rule:nonzero;stroke:none;stroke-width:0.1"
           id="path384" />
        <path
           d="M 1007.71,651.72 H 1000 v 107.35 h 7.71 V 651.72"
           style="fill:#212121;fill-opacity:1;fill-rule:nonzero;stroke:none;stroke-width:0.1"
           id="path386" />
        <path
           d="M 1000,651.36 H 898 v 107.71 h 102 V 651.36"
           style="fill:#ffb74d;fill-opacity:1;fill-rule:nonzero;stroke:none;stroke-width:0.1"
           id="path388" />
        <path
           d="M 1000,733.79 H 905.714 V 746.2 H 1000 v -12.41"
           style="fill:#ffffff;fill-opacity:1;fill-rule:nonzero;stroke:none;stroke-width:0.1"
           id="path390" />
        <path
           d="M 1000,705.39 H 905.714 V 717.8 H 1000 v -12.41"
           style="fill:#ffffff;fill-opacity:1;fill-rule:nonzero;stroke:none;stroke-width:0.1"
           id="path392" />
        <path
           d="M 905.714,651.72 H 898 v 107.35 h 7.714 V 651.72"
           style="fill:#212121;fill-opacity:1;fill-rule:nonzero;stroke:none;stroke-width:0.1"
           id="path394" />
        <path
           d="M 898,651.36 H 796 V 759.07 H 898 V 651.36"
           style="fill:#ffb74d;fill-opacity:1;fill-rule:nonzero;stroke:none;stroke-width:0.1"
           id="path396" />
        <path
           d="M 898,733.79 H 803.714 V 746.2 H 898 v -12.41"
           style="fill:#ffffff;fill-opacity:1;fill-rule:nonzero;stroke:none;stroke-width:0.1"
           id="path398" />
        <path
           d="M 898,705.39 H 803.714 V 717.8 H 898 v -12.41"
           style="fill:#ffffff;fill-opacity:1;fill-rule:nonzero;stroke:none;stroke-width:0.1"
           id="path400" />
        <path
           d="M 803.714,651.72 H 796 v 107.35 h 7.714 V 651.72"
           style="fill:#212121;fill-opacity:1;fill-rule:nonzero;stroke:none;stroke-width:0.1"
           id="path402" />
        <path
           d="M 796,651.36 H 694 V 759.07 H 796 V 651.36"
           style="fill:#ffb74d;fill-opacity:1;fill-rule:nonzero;stroke:none;stroke-width:0.1"
           id="path404" />
        <path
           d="M 796,733.79 H 701.714 V 746.2 H 796 v -12.41"
           style="fill:#ffffff;fill-opacity:1;fill-rule:nonzero;stroke:none;stroke-width:0.1"
           id="path406" />
        <path
           d="M 796,705.39 H 701.714 V 717.8 H 796 v -12.41"
           style="fill:#ffffff;fill-opacity:1;fill-rule:nonzero;stroke:none;stroke-width:0.1"
           id="path408" />
        <path
           d="M 701.714,651.72 H 694 v 107.35 h 7.714 V 651.72"
           style="fill:#212121;fill-opacity:1;fill-rule:nonzero;stroke:none;stroke-width:0.1"
           id="path410" />
        <path
           d="m 716.929,651.36 130.755,482.57 c 0,4.21 -40.832,-6.53 -42.726,-12.59 L 605.485,651.36 h 111.444"
           style="fill:#37474f;fill-opacity:1;fill-rule:nonzero;stroke:none;stroke-width:0.1"
           id="path412" />
        <path
           d="m 694,651.36 h 22.929 l 113.046,417.21 z"
           style="fill:#263238;fill-opacity:1;fill-rule:nonzero;stroke:none;stroke-width:0.1"
           id="path414" />
        <path
           d="m 1283.07,651.36 -130.75,482.57 c 0,4.21 40.83,-6.53 42.72,-12.59 l 199.47,-469.98 h -111.44"
           style="fill:#37474f;fill-opacity:1;fill-rule:nonzero;stroke:none;stroke-width:0.1"
           id="path416" />
        <path
           d="m 1306,651.36 h -22.93 l -113.04,417.21 z"
           style="fill:#263238;fill-opacity:1;fill-rule:nonzero;stroke:none;stroke-width:0.1"
           id="path418" />
        <path
           d="m 1059.3,1153.57 c -15.95,-23.66 -35.67,-43.65 -59.3,-59.84 -26.939,15.23 -47.899,35.24 -61.457,61.17 -2.665,5.09 -3.969,10.79 -3.969,16.54 v 94.22 h 130.856 v -91.85 c 0,-7.2 -2.1,-14.27 -6.13,-20.24"
           style="fill:#f7bdaa;fill-opacity:1;fill-rule:nonzero;stroke:none;stroke-width:0.1"
           id="path420" />
        <path
           d="m 1037.9,1126.5 c -43.563,-25.32 -77.618,-1.42 -79.486,-0.06 11.528,-12.77 25.479,-23.6 41.586,-32.71 14,9.59 26.62,20.53 37.9,32.77"
           style="fill:#dd8c7f;fill-opacity:1;fill-rule:nonzero;stroke:none;stroke-width:0.1"
           id="path422" />
        <path
           d="m 934.574,1216.73 c 28.52,-10.28 54.987,-14.69 65.386,-14.69 10.41,0 36.92,4.42 65.47,14.72 v 48.9 H 934.574 v -48.93"
           style="fill:#dd8c7f;fill-opacity:1;fill-rule:nonzero;stroke:none;stroke-width:0.1"
           id="path424" />
        <path
           d="m 1058.91,1593.07 c -42.37,-66.92 -234.07,-37.16 -228.969,-114.82 0,0 1.633,-120.5 12.09,-157.95 19.161,-68.62 133.368,-93.18 157.929,-93.18 24.56,0 138.77,24.56 157.93,93.18 10.46,37.45 12.09,157.95 12.09,157.95 3.07,50.35 -82.22,38.69 -111.07,114.82"
           style="fill:#f7bdaa;fill-opacity:1;fill-rule:nonzero;stroke:none;stroke-width:0.1"
           id="path426" />
        <path
           d="m 1169.95,1483.63 c -3.21,44.21 -83.26,36.15 -111.04,109.44 -41.27,-65.19 -224.236,-38.64 -228.968,-109 5.767,17.39 11.52,37.94 113.331,49.78 110.437,12.84 113.157,39.5 113.157,39.5 0,0 4.71,-27.22 65.51,-53.82 22.93,-10.04 36.88,-13.59 48.01,-35.9"
           style="fill:#dd8c7f;fill-opacity:1;fill-rule:nonzero;stroke:none;stroke-width:0.1"
           id="path428" />
        <path
           d="m 821.68,1474.37 c -1.324,10.02 -13.393,14.58 -20.857,7.77 l -0.214,-0.2 c -15.584,-14.57 -4.751,-81.02 31.898,-67.31 0,0 -7.408,33.86 -10.827,59.74"
           style="fill:#f7bdaa;fill-opacity:1;fill-rule:nonzero;stroke:none;stroke-width:0.1"
           id="path430" />
        <path
           d="m 1178.24,1474.37 c 1.32,10.02 13.39,14.58 20.86,7.77 l 0.21,-0.2 c 15.58,-14.57 4.75,-81.02 -31.9,-67.31 0,0 7.41,33.86 10.83,59.74"
           style="fill:#f7bdaa;fill-opacity:1;fill-rule:nonzero;stroke:none;stroke-width:0.1"
           id="path432" />
        <path
           d="m 943.599,1491.2 c 3.054,5.29 -0.963,17.77 -15.423,18.66 -36.171,2.23 -53.952,-18.03 -49.529,-21.87 5.087,-4.41 61.613,-2.57 64.952,3.21"
           style="fill:#263238;fill-opacity:1;fill-rule:nonzero;stroke:none;stroke-width:0.1"
           id="path434" />
        <path
           d="m 1056.32,1491.2 c -3.05,5.29 0.96,17.77 15.42,18.66 36.17,2.23 53.96,-18.03 49.53,-21.87 -5.08,-4.41 -61.61,-2.57 -64.95,3.21"
           style="fill:#263238;fill-opacity:1;fill-rule:nonzero;stroke:none;stroke-width:0.1"
           id="path436" />
        <path
           d="m 990.606,1363.15 -11.003,5.14 c 11.898,11.47 10.256,33.15 10.176,34.11 -0.075,0.9 -0.871,1.57 -1.764,1.49 -0.9,-0.07 -1.57,-0.86 -1.496,-1.76 0.019,-0.23 1.744,-23.19 -10.892,-32.96 -0.451,-0.35 -0.688,-0.9 -0.625,-1.47 0.062,-0.57 0.415,-1.06 0.932,-1.3 l 13.286,-6.21 c 0.224,-0.11 0.46,-0.16 0.692,-0.16 0.615,0 1.205,0.35 1.483,0.94 0.382,0.82 0.029,1.8 -0.789,2.18"
           style="fill:#dd8c7f;fill-opacity:1;fill-rule:nonzero;stroke:none;stroke-width:0.1"
           id="path438" />
        <path
           d="m 1053.18,1335.85 c -0.89,0.2 -1.76,-0.37 -1.94,-1.26 -0.04,-0.15 -3.52,-15.85 -17,-23.37 -9.59,-5.35 -21.92,-5.39 -36.663,-0.12 -0.847,0.3 -1.786,-0.14 -2.09,-0.99 -0.304,-0.85 0.139,-1.79 0.99,-2.09 5.873,-2.1 11.403,-3.4 16.573,-3.89 8.64,-0.82 16.28,0.6 22.82,4.25 14.78,8.27 18.42,24.84 18.57,25.54 0.19,0.88 -0.38,1.75 -1.26,1.93"
           style="fill:#f1606d;fill-opacity:1;fill-rule:nonzero;stroke:none;stroke-width:0.1"
           id="path444" />
        <path
           d="m 956.71,1424.77 c 0,-21.36 -15.463,-32.14 -34.536,-32.14 -19.074,0 -34.537,10.78 -34.537,32.14 0,21.36 11.441,45.22 34.537,45.22 24.178,0 34.536,-23.86 34.536,-45.22"
           style="fill:#263238;fill-opacity:1;fill-rule:nonzero;stroke:none;stroke-width:0.1"
           id="path446" />
        <path
           d="m 955.461,1420.41 c 0,-21.37 -14.904,-32.14 -33.287,-32.14 -18.384,0 -33.288,10.77 -33.288,32.14 0,21.36 11.028,45.22 33.288,45.22 23.304,0 33.287,-23.86 33.287,-45.22"
           style="fill:#ffffff;fill-opacity:1;fill-rule:nonzero;stroke:none;stroke-width:0.1"
           id="path448" />
        <path
           d="m 955.461,1420.41 c 0,4.28 -0.41,8.67 -1.24,12.94 -4.746,10.21 -14.456,17.22 -25.673,17.22 -15.889,0 -28.77,-14.05 -28.77,-31.37 0,-15.5 10.314,-28.37 23.865,-30.91 17.702,0.57 31.818,11.33 31.818,32.12"
           style="fill:#784421;fill-opacity:1;fill-rule:nonzero;stroke:none;stroke-width:0.1"
           id="path450" />
        <path
           d="m 943.273,1418.34 c 0,-8.31 -6.18824,-15.04 -13.82084,-15.04 -7.63373,0 -13.82196,6.73 -13.82196,15.04 0,8.31 6.18823,15.04 13.82196,15.04 7.6326,0 13.82084,-6.73 13.82084,-15.04"
           style="fill:#111719;fill-opacity:1;fill-rule:nonzero;stroke:none;stroke-width:0.105651"
           id="path452" />
        <path
           d="m 1043.21,1424.77 c 0,-21.36 15.46,-32.14 34.54,-32.14 19.07,0 34.53,10.78 34.53,32.14 0,21.36 -11.44,45.22 -34.53,45.22 -24.18,0 -34.54,-23.86 -34.54,-45.22"
           style="fill:#263238;fill-opacity:1;fill-rule:nonzero;stroke:none;stroke-width:0.1"
           id="path454" />
        <path
           d="m 1044.46,1420.41 c 0,-21.37 14.9,-32.14 33.29,-32.14 18.38,0 33.28,10.77 33.28,32.14 0,21.36 -11.02,45.22 -33.28,45.22 -23.31,0 -33.29,-23.86 -33.29,-45.22"
           style="fill:#ffffff;fill-opacity:1;fill-rule:nonzero;stroke:none;stroke-width:0.1"
           id="path456" />
        <path
           d="m 1044.46,1420.41 c 0,4.28 0.41,8.67 1.24,12.94 4.74,10.21 14.45,17.22 25.67,17.22 15.89,0 28.77,-14.05 28.77,-31.37 0,-15.5 -10.31,-28.37 -23.86,-30.91 -17.71,0.57 -31.82,11.33 -31.82,32.12"
           style="fill:#784421;fill-opacity:1;fill-rule:nonzero;stroke:none;stroke-width:0.1"
           id="path458" />
        <path
           d="m 1056.65,1418.34 c 0,-8.31 6.2239,-15.04 13.9082,-15.04 7.6844,0 13.9083,6.73 13.9083,15.04 0,8.31 -6.2239,15.04 -13.9083,15.04 -7.6843,0 -13.9082,-6.73 -13.9082,-15.04"
           style="fill:#111719;fill-opacity:1;fill-rule:nonzero;stroke:none;stroke-width:0.105993"
           id="path460" />
        <ellipse
           style="fill:none;stroke:#660080;stroke-width:5.33831;stroke-miterlimit:4;stroke-dasharray:none"
           id="path2951"
           transform="scale(1,-1)"
           ry="46.124287"
           rx="70.668564"
           cy="-1429.3455"
           cx="915.76306" />
        <ellipse
           style="fill:none;stroke:#660080;stroke-width:5.33831;stroke-miterlimit:4;stroke-dasharray:none"
           id="ellipse3495"
           transform="scale(1,-1)"
           ry="46.124287"
           rx="70.668564"
           cy="-1429.3455"
           cx="1084.7341" />
        <rect
           style="opacity:1;fill:#660080;stroke:#660080;stroke-width:0.826831;stroke-miterlimit:4;stroke-dasharray:none"
           id="rect3519"
           width="27.2847"
           height="4.3602505"
           x="986.86963"
           y="-1428.1179"
           transform="scale(1,-1)" />
        <rect
           style="opacity:1;fill:#660080;stroke:#660080;stroke-width:0.610797;stroke-miterlimit:4;stroke-dasharray:none"
           id="rect4091"
           width="14.186581"
           height="4.5762844"
           x="1156.3358"
           y="-1438.6254"
           transform="scale(1,-1)" />
        <rect
           style="opacity:1;fill:#660080;stroke:#660080;stroke-width:0.610797;stroke-miterlimit:4;stroke-dasharray:none"
           id="rect4095"
           width="14.186581"
           height="4.5762844"
           x="831.37006"
           y="-1438.6254"
           transform="scale(1,-1)" />
      </g>
      <text
         xml:space="preserve"
         style="font-style:normal;font-weight:normal;font-size:35.2778px;line-height:1.25;font-family:sans-serif;letter-spacing:0px;word-spacing:0px;fill:#ececec;fill-opacity:1;stroke:none;stroke-width:0.264583"
         x="59.274235"
         y="33.855907"
         id="text4870"
         inkscape:export-filename="/home/angel/LearningHTML/Emmaline_GirlScouts/contactheader.png"
         inkscape:export-xdpi="112.8"
         inkscape:export-ydpi="112.8"><tspan
           sodipodi:role="line"
           id="tspan4868"
           style="font-style:normal;font-variant:normal;font-weight:normal;font-stretch:normal;font-size:35.2778px;font-family:'A Song for Jennifer';-inkscape-font-specification:'A Song for Jennifer';fill:#ffffff;stroke-width:0.264583"
           x="59.274235"
           y="33.855907">Contact</tspan></text>
    </g>
  </g>
</svg>
