<?xml version="1.0" encoding="UTF-8" standalone="no"?>
<!-- Created with Inkscape (http://www.inkscape.org/) -->

<svg
   width="48"
   height="48"
   viewBox="0 0 12.7 12.7"
   version="1.1"
   id="svg5"
   inkscape:export-filename="/home/angel/LearningHTML/Emmaline_GirlScouts/gsemmafavicon.png"
   inkscape:export-xdpi="112.8"
   inkscape:export-ydpi="112.8"
   inkscape:version="1.1.2 (0a00cf5339, 2022-02-04)"
   sodipodi:docname="gsemmafavicon.svg"
   xmlns:inkscape="http://www.inkscape.org/namespaces/inkscape"
   xmlns:sodipodi="http://sodipodi.sourceforge.net/DTD/sodipodi-0.dtd"
   xmlns="http://www.w3.org/2000/svg"
   xmlns:svg="http://www.w3.org/2000/svg">
  <sodipodi:namedview
     id="namedview7"
     pagecolor="#ffffff"
     bordercolor="#666666"
     borderopacity="1.0"
     inkscape:pageshadow="2"
     inkscape:pageopacity="0.0"
     inkscape:pagecheckerboard="0"
     inkscape:document-units="mm"
     showgrid="false"
     units="px"
     width="48px"
     inkscape:zoom="6.0150393"
     inkscape:cx="-2.9924992"
     inkscape:cy="2.6599993"
     inkscape:window-width="1551"
     inkscape:window-height="773"
     inkscape:window-x="173"
     inkscape:window-y="107"
     inkscape:window-maximized="0"
     inkscape:current-layer="layer1" />
  <defs
     id="defs2" />
  <g
     inkscape:label="Layer 1"
     inkscape:groupmode="layer"
     id="layer1">
    <g
       id="g1501"
       transform="matrix(1.9511769,0,0,1.9511769,-6.6681043,-6.61234)">
      <g
         id="g52192"
         transform="matrix(0.04734542,0,0,0.04654264,-7.2792698,-6.8034345)">
        <g
           id="g1550"
           transform="matrix(0.19294671,0,0,0.20657925,221.1239,174.41476)">
          <path
             inkscape:connector-curvature="0"
             id="path51842"
             d="m 324.87366,229.84814 c -65.98567,0 -119.57843,55.66089 -119.57843,124.19308 0,68.88034 53.59276,124.54121 119.57843,124.54121 h 106.18037 c 65.98653,0 119.91407,-55.66087 119.91407,-124.54121 0,-68.53219 -53.92754,-124.19308 -119.91407,-124.19308 z"
             style="fill:#008000;fill-opacity:1;fill-rule:evenodd;stroke:none" />
          <path
             inkscape:connector-curvature="0"
             id="path51839"
             d="m 705.38233,467.10256 c 0,-68.18453 -52.92451,-123.1496 -118.24108,-123.1496 h -2.67902 c -65.6509,0 -118.57113,54.96507 -118.57113,123.1496 v 93.23184 c 0,68.18438 52.92023,123.15055 118.57113,123.15055 h 2.67902 c 65.31657,0 118.24108,-54.96617 118.24108,-123.15055 z"
             style="fill:#008000;fill-opacity:1;fill-rule:evenodd;stroke:none" />
          <path
             inkscape:connector-curvature="0"
             id="path51836"
             d="m 286.68933,467.10256 c 0,-68.18453 -52.9228,-123.1496 -118.57371,-123.1496 h -2.34467 c -65.65091,0 -118.5737,54.96507 -118.5737,123.1496 v 93.23184 c 0,68.18438 52.92279,123.15055 118.5737,123.15055 h 2.34467 c 65.65091,0 118.57371,-54.96617 118.57371,-123.15055 z"
             style="fill:#008000;fill-opacity:1;fill-rule:evenodd;stroke:none" />
          <path
             inkscape:connector-curvature="0"
             id="path51833"
             d="m 378.13166,270.54999 c -95.46215,0 -172.83643,137.76051 -172.83643,307.87401 0,170.1113 77.37428,307.87353 172.83643,307.87353 95.46216,0 172.83644,-137.76223 172.83644,-307.87353 0,-170.1135 -77.37428,-307.87401 -172.83644,-307.87401 z"
             style="fill:#008000;fill-opacity:1;fill-rule:evenodd;stroke:none" />
          <path
             inkscape:connector-curvature="0"
             id="path51830"
             d="m 259.55796,343.95296 c -29.8108,0 -54.26273,25.39496 -54.26273,56.70434 v 226.12173 c 0,31.30938 24.45193,56.70592 54.26273,56.70592 h 236.81392 c 30.14215,0 54.59622,-25.39654 54.59622,-56.70592 V 400.6573 c 0,-31.30938 -24.45407,-56.70434 -54.59622,-56.70434 z"
             style="fill:#008000;fill-opacity:1;fill-rule:evenodd;stroke:none" />
          <path
             inkscape:connector-curvature="0"
             id="path51827"
             d="m 297.07276,255.59126 c -23.78194,0 -43.20889,20.17716 -43.20889,44.87649 v 182.98499 c 0,25.04746 19.42695,44.87649 43.20889,44.87649 h 172.83472 c 23.78109,0 43.21148,-19.82903 43.21148,-44.87649 V 300.46775 c 0,-24.69933 -19.43039,-44.87649 -43.21148,-44.87649 z"
             style="fill:#008000;fill-opacity:1;fill-rule:evenodd;stroke:none" />
          <path
             inkscape:connector-curvature="0"
             id="path51824"
             d="m 153.0424,391.96032 c -23.78152,0 -43.20889,19.82935 -43.20889,44.87634 v 182.98498 c 0,24.69933 19.42737,44.8765 43.20889,44.8765 h 172.83643 c 23.78152,0 43.2089,-20.17717 43.2089,-44.8765 V 436.83666 c 0,-25.04699 -19.42738,-44.87634 -43.2089,-44.87634 z"
             style="fill:#008000;fill-opacity:1;fill-rule:evenodd;stroke:none" />
          <path
             inkscape:connector-curvature="0"
             id="path51821"
             d="m 400.57324,389.17743 c -23.78152,0 -43.20889,20.17701 -43.20889,44.87633 v 182.98467 c 0,25.04747 19.42737,44.87728 43.20889,44.87728 h 172.8343 c 23.78538,0 43.21146,-19.82981 43.21146,-44.87728 V 434.05376 c 0,-24.69932 -19.42608,-44.87633 -43.21146,-44.87633 z"
             style="fill:#008000;fill-opacity:1;fill-rule:evenodd;stroke:none" />
        </g>
        <g
           id="g2180"
           transform="matrix(0.1778222,0,0,0.18932946,226.62885,182.94489)"
           style="fill:#ffffff">
          <path
             inkscape:connector-curvature="0"
             id="path51818"
             d="m 324.87366,229.84814 c -65.98567,0 -119.57843,55.66089 -119.57843,124.19308 0,68.88034 53.59276,124.54121 119.57843,124.54121 h 106.18037 c 65.98653,0 119.91407,-55.66087 119.91407,-124.54121 0,-68.53219 -53.92754,-124.19308 -119.91407,-124.19308 z"
             style="fill:#ffffff;fill-opacity:1;fill-rule:evenodd;stroke:none" />
          <path
             inkscape:connector-curvature="0"
             id="path51815"
             d="m 705.38233,467.10256 c 0,-68.18453 -52.92451,-123.1496 -118.24108,-123.1496 h -2.67902 c -65.6509,0 -118.57113,54.96507 -118.57113,123.1496 v 93.23184 c 0,68.18438 52.92023,123.15055 118.57113,123.15055 h 2.67902 c 65.31657,0 118.24108,-54.96617 118.24108,-123.15055 z"
             style="fill:#ffffff;fill-opacity:1;fill-rule:evenodd;stroke:none" />
          <path
             inkscape:connector-curvature="0"
             id="path51812"
             d="m 286.68933,467.10256 c 0,-68.18453 -52.9228,-123.1496 -118.57371,-123.1496 h -2.34467 c -65.65091,0 -118.5737,54.96507 -118.5737,123.1496 v 93.23184 c 0,68.18438 52.92279,123.15055 118.5737,123.15055 h 2.34467 c 65.65091,0 118.57371,-54.96617 118.57371,-123.15055 z"
             style="fill:#ffffff;fill-opacity:1;fill-rule:evenodd;stroke:none" />
          <path
             inkscape:connector-curvature="0"
             id="path51809"
             d="m 378.13166,270.54999 c -95.46215,0 -172.83643,137.76051 -172.83643,307.87401 0,170.1113 77.37428,307.87353 172.83643,307.87353 95.46216,0 172.83644,-137.76223 172.83644,-307.87353 0,-170.1135 -77.37428,-307.87401 -172.83644,-307.87401 z"
             style="fill:#ffffff;fill-opacity:1;fill-rule:evenodd;stroke:none" />
          <path
             inkscape:connector-curvature="0"
             id="path51806"
             d="m 259.55796,343.95296 c -29.8108,0 -54.26273,25.39496 -54.26273,56.70434 v 226.12173 c 0,31.30938 24.45193,56.70592 54.26273,56.70592 h 236.81392 c 30.14215,0 54.59622,-25.39654 54.59622,-56.70592 V 400.6573 c 0,-31.30938 -24.45407,-56.70434 -54.59622,-56.70434 z"
             style="fill:#ffffff;fill-opacity:1;fill-rule:evenodd;stroke:none" />
          <path
             inkscape:connector-curvature="0"
             id="path51803"
             d="m 297.07276,255.59126 c -23.78194,0 -43.20889,20.17716 -43.20889,44.87649 v 182.98499 c 0,25.04746 19.42695,44.87649 43.20889,44.87649 h 172.83472 c 23.78109,0 43.21148,-19.82903 43.21148,-44.87649 V 300.46775 c 0,-24.69933 -19.43039,-44.87649 -43.21148,-44.87649 z"
             style="fill:#ffffff;fill-opacity:1;fill-rule:evenodd;stroke:none" />
          <path
             inkscape:connector-curvature="0"
             id="path51800"
             d="m 153.0424,391.96032 c -23.78152,0 -43.20889,19.82935 -43.20889,44.87634 v 182.98498 c 0,24.69933 19.42737,44.8765 43.20889,44.8765 h 172.83643 c 23.78152,0 43.2089,-20.17717 43.2089,-44.8765 V 436.83666 c 0,-25.04699 -19.42738,-44.87634 -43.2089,-44.87634 z"
             style="fill:#ffffff;fill-opacity:1;fill-rule:evenodd;stroke:none" />
          <path
             inkscape:connector-curvature="0"
             id="path51797"
             d="m 400.57324,389.17743 c -23.78152,0 -43.20889,20.17701 -43.20889,44.87633 v 182.98467 c 0,25.04747 19.42737,44.87728 43.20889,44.87728 h 172.8343 c 23.78538,0 43.21146,-19.82981 43.21146,-44.87728 V 434.05376 c 0,-24.69932 -19.42608,-44.87633 -43.21146,-44.87633 z"
             style="fill:#ffffff;fill-opacity:1;fill-rule:evenodd;stroke:none" />
        </g>
        <g
           id="g52145"
           transform="matrix(0.16770799,0,0,0.17434559,230.61923,190.0943)"
           style="fill:#008000">
          <path
             inkscape:connector-curvature="0"
             id="path52129"
             d="m 324.87366,229.84814 c -65.98567,0 -119.57843,55.66089 -119.57843,124.19308 0,68.88034 53.59276,124.54121 119.57843,124.54121 h 106.18037 c 65.98653,0 119.91407,-55.66087 119.91407,-124.54121 0,-68.53219 -53.92754,-124.19308 -119.91407,-124.19308 z"
             style="fill:#008000;fill-opacity:1;fill-rule:evenodd;stroke:none" />
          <path
             inkscape:connector-curvature="0"
             id="path52131"
             d="m 705.38233,467.10256 c 0,-68.18453 -52.92451,-123.1496 -118.24108,-123.1496 h -2.67902 c -65.6509,0 -118.57113,54.96507 -118.57113,123.1496 v 93.23184 c 0,68.18438 52.92023,123.15055 118.57113,123.15055 h 2.67902 c 65.31657,0 118.24108,-54.96617 118.24108,-123.15055 z"
             style="fill:#008000;fill-opacity:1;fill-rule:evenodd;stroke:none" />
          <path
             inkscape:connector-curvature="0"
             id="path52133"
             d="m 286.68933,467.10256 c 0,-68.18453 -52.9228,-123.1496 -118.57371,-123.1496 h -2.34467 c -65.65091,0 -118.5737,54.96507 -118.5737,123.1496 v 93.23184 c 0,68.18438 52.92279,123.15055 118.5737,123.15055 h 2.34467 c 65.65091,0 118.57371,-54.96617 118.57371,-123.15055 z"
             style="fill:#008000;fill-opacity:1;fill-rule:evenodd;stroke:none" />
          <path
             inkscape:connector-curvature="0"
             id="path52135"
             d="m 378.13166,270.54999 c -95.46215,0 -172.83643,137.76051 -172.83643,307.87401 0,170.1113 77.37428,307.87353 172.83643,307.87353 95.46216,0 172.83644,-137.76223 172.83644,-307.87353 0,-170.1135 -77.37428,-307.87401 -172.83644,-307.87401 z"
             style="fill:#008000;fill-opacity:1;fill-rule:evenodd;stroke:none" />
          <path
             inkscape:connector-curvature="0"
             id="path52137"
             d="m 259.55796,343.95296 c -29.8108,0 -54.26273,25.39496 -54.26273,56.70434 v 226.12173 c 0,31.30938 24.45193,56.70592 54.26273,56.70592 h 236.81392 c 30.14215,0 54.59622,-25.39654 54.59622,-56.70592 V 400.6573 c 0,-31.30938 -24.45407,-56.70434 -54.59622,-56.70434 z"
             style="fill:#008000;fill-opacity:1;fill-rule:evenodd;stroke:none" />
          <path
             inkscape:connector-curvature="0"
             id="path52139"
             d="m 297.07276,255.59126 c -23.78194,0 -43.20889,20.17716 -43.20889,44.87649 v 182.98499 c 0,25.04746 19.42695,44.87649 43.20889,44.87649 h 172.83472 c 23.78109,0 43.21148,-19.82903 43.21148,-44.87649 V 300.46775 c 0,-24.69933 -19.43039,-44.87649 -43.21148,-44.87649 z"
             style="fill:#008000;fill-opacity:1;fill-rule:evenodd;stroke:none" />
          <path
             inkscape:connector-curvature="0"
             id="path52141"
             d="m 153.0424,391.96032 c -23.78152,0 -43.20889,19.82935 -43.20889,44.87634 v 182.98498 c 0,24.69933 19.42737,44.8765 43.20889,44.8765 h 172.83643 c 23.78152,0 43.2089,-20.17717 43.2089,-44.8765 V 436.83666 c 0,-25.04699 -19.42738,-44.87634 -43.2089,-44.87634 z"
             style="fill:#008000;fill-opacity:1;fill-rule:evenodd;stroke:none" />
          <path
             inkscape:connector-curvature="0"
             id="path52143"
             d="m 400.57324,389.17743 c -23.78152,0 -43.20889,20.17701 -43.20889,44.87633 v 182.98467 c 0,25.04747 19.42737,44.87728 43.20889,44.87728 h 172.8343 c 23.78538,0 43.21146,-19.82981 43.21146,-44.87728 V 434.05376 c 0,-24.69932 -19.42608,-44.87633 -43.21146,-44.87633 z"
             style="fill:#008000;fill-opacity:1;fill-rule:evenodd;stroke:none" />
        </g>
      </g>
      <g
         aria-label="3758"
         id="text58846"
         style="font-size:26.3588px;line-height:1.25;letter-spacing:0px;word-spacing:0px;fill:#ffffff;stroke-width:0.308893"
         transform="matrix(0.06610227,0,0,0.06660566,-14.980916,-11.735469)">
        <path
           d="m 304.79543,268.83226 q 1.86622,0.39899 2.90873,1.6603 1.05539,1.26131 1.05539,3.11466 0,2.84439 -1.95632,4.40172 -1.95632,1.55733 -5.56006,1.55733 -1.20983,0 -2.49688,-0.24454 -1.27418,-0.23167 -2.63845,-0.70788 v -2.50975 q 1.08112,0.63066 2.36817,0.95242 1.28705,0.32176 2.68994,0.32176 2.44539,0 3.71957,-0.96529 1.28705,-0.96528 1.28705,-2.80577 0,-1.6989 -1.19695,-2.65132 -1.18409,-0.96529 -3.30772,-0.96529 h -2.23947 v -2.1365 h 2.34243 q 1.91771,0 2.93448,-0.75936 1.01677,-0.77223 1.01677,-2.21373 0,-1.48011 -1.05539,-2.26521 -1.04251,-0.79797 -2.99882,-0.79797 -1.06826,0 -2.29095,0.23167 -1.2227,0.23167 -2.68994,0.72075 v -2.3167 q 1.48011,-0.41185 2.76716,-0.61778 1.29992,-0.20593 2.44539,-0.20593 2.96022,0 4.68487,1.3514 1.72465,1.33854 1.72465,3.62949 0,1.59594 -0.91381,2.7028 -0.9138,1.094 -2.59984,1.51872 z"
           id="path63329" />
        <path
           d="m 313.03255,259.97735 h 12.35569 v 1.10687 l -6.97581,18.1088 h -2.71568 l 6.56396,-17.02768 h -9.22816 z"
           id="path63331" />
        <path
           d="m 330.48496,259.97735 h 10.20631 v 2.18799 h -7.82526 v 4.71061 q 0.5663,-0.19306 1.1326,-0.28315 0.5663,-0.10297 1.13261,-0.10297 3.21762,0 5.09672,1.76326 1.87909,1.76326 1.87909,4.77496 0,3.10179 -1.93058,4.82644 -1.93057,1.71178 -5.44422,1.71178 -1.20983,0 -2.47114,-0.20593 -1.24844,-0.20593 -2.58697,-0.61778 v -2.61272 q 1.15835,0.63066 2.39391,0.93955 1.23557,0.30889 2.61272,0.30889 2.2266,0 3.52652,-1.17121 1.29992,-1.17122 1.29992,-3.17902 0,-2.0078 -1.29992,-3.17902 -1.29992,-1.17121 -3.52652,-1.17121 -1.04251,0 -2.08503,0.23167 -1.02964,0.23167 -2.11076,0.72075 z"
           id="path63333" />
        <path
           d="m 352.78955,270.06783 q -1.85335,0 -2.9216,0.99103 -1.05539,0.99103 -1.05539,2.72855 0,1.73752 1.05539,2.72855 1.06825,0.99103 2.9216,0.99103 1.85335,0 2.92161,-0.99103 1.06825,-1.0039 1.06825,-2.72855 0,-1.73752 -1.06825,-2.72855 -1.05538,-0.99103 -2.92161,-0.99103 z m -2.59984,-1.10686 q -1.67317,-0.41186 -2.61271,-1.55733 -0.92668,-1.14548 -0.92668,-2.7929 0,-2.30382 1.63455,-3.64236 1.64743,-1.33853 4.50468,-1.33853 2.87012,0 4.50468,1.33853 1.63455,1.33854 1.63455,3.64236 0,1.64742 -0.93954,2.7929 -0.92668,1.14547 -2.58698,1.55733 1.8791,0.4376 2.92161,1.71178 1.05538,1.27418 1.05538,3.11466 0,2.7929 -1.71178,4.28588 -1.6989,1.49298 -4.87792,1.49298 -3.17901,0 -4.89079,-1.49298 -1.69891,-1.49298 -1.69891,-4.28588 0,-1.84048 1.05538,-3.11466 1.05538,-1.27418 2.93448,-1.71178 z m -0.95242,-4.10569 q 0,1.49298 0.92668,2.32956 0.93954,0.83658 2.62558,0.83658 1.67317,0 2.61271,-0.83658 0.95242,-0.83658 0.95242,-2.32956 0,-1.49298 -0.95242,-2.32956 -0.93954,-0.83659 -2.61271,-0.83659 -1.68604,0 -2.62558,0.83659 -0.92668,0.83658 -0.92668,2.32956 z"
           id="path63335" />
      </g>
    </g>
  </g>
</svg>
