<?xml version="1.0" encoding="UTF-8" standalone="no"?>
<!-- Created with Inkscape (http://www.inkscape.org/) -->

<svg
   width="56.144707mm"
   height="39.208706mm"
   viewBox="0 0 198.93794 138.92849"
   id="svg2"
   version="1.1"
   inkscape:version="1.1.2 (0a00cf5339, 2022-02-04)"
   sodipodi:docname="gslogo.svg"
   xmlns:inkscape="http://www.inkscape.org/namespaces/inkscape"
   xmlns:sodipodi="http://sodipodi.sourceforge.net/DTD/sodipodi-0.dtd"
   xmlns="http://www.w3.org/2000/svg"
   xmlns:svg="http://www.w3.org/2000/svg"
   xmlns:rdf="http://www.w3.org/1999/02/22-rdf-syntax-ns#"
   xmlns:cc="http://creativecommons.org/ns#"
   xmlns:dc="http://purl.org/dc/elements/1.1/">
  <defs
     id="defs4">
    <clipPath
       id="clipEmfPath1"
       clipPathUnits="userSpaceOnUse">
      <path
         inkscape:connector-curvature="0"
         id="path3341"
         d="M 7.50172,-2.50057 H 443.852 V 1048.99 H 7.50172 Z" />
    </clipPath>
    <pattern
       y="0"
       x="0"
       height="6"
       width="6"
       patternUnits="userSpaceOnUse"
       id="EMFhbasepattern" />
    <clipPath
       id="clipEmfPath1-3"
       clipPathUnits="userSpaceOnUse">
      <path
         inkscape:connector-curvature="0"
         id="path3734"
         d="M -5.00114,-2.50057 H 335.077 V 358.832 H -5.00114 Z" />
    </clipPath>
    <pattern
       y="0"
       x="0"
       height="6"
       width="6"
       patternUnits="userSpaceOnUse"
       id="EMFhbasepattern-5" />
    <clipPath
       id="clipEmfPath1-4"
       clipPathUnits="userSpaceOnUse">
      <path
         inkscape:connector-curvature="0"
         id="path3947"
         d="M -2.50057,-2.50057 H 161.287 V 155.035 H -2.50057 Z" />
    </clipPath>
    <pattern
       y="0"
       x="0"
       height="6"
       width="6"
       patternUnits="userSpaceOnUse"
       id="EMFhbasepattern-8" />
  </defs>
  <sodipodi:namedview
     id="base"
     pagecolor="#ffffff"
     bordercolor="#666666"
     borderopacity="1.0"
     inkscape:pageopacity="0.0"
     inkscape:pageshadow="2"
     inkscape:zoom="1.4"
     inkscape:cx="17.5"
     inkscape:cy="186.78571"
     inkscape:document-units="px"
     inkscape:current-layer="layer1"
     showgrid="false"
     inkscape:window-width="1920"
     inkscape:window-height="1016"
     inkscape:window-x="0"
     inkscape:window-y="27"
     inkscape:window-maximized="1"
     inkscape:pagecheckerboard="0"
     fit-margin-top="0"
     fit-margin-left="0"
     fit-margin-right="0"
     fit-margin-bottom="0" />
  <metadata
     id="metadata7">
    <rdf:RDF>
      <cc:Work
         rdf:about="">
        <dc:format>image/svg+xml</dc:format>
        <dc:type
           rdf:resource="http://purl.org/dc/dcmitype/StillImage" />
      </cc:Work>
    </rdf:RDF>
  </metadata>
  <g
     inkscape:label="Layer 1"
     inkscape:groupmode="layer"
     id="layer1"
     transform="translate(-74.625771,-152.93438)">
    <g
       id="g68660">
      <g
         id="g63274"
         transform="matrix(0.73690477,0,0,0.74251655,-32.180815,21.412019)">
        <g
           id="g52992"
           style="fill:#ffeeaa"
           transform="rotate(-10.171126,-289.32886,1662.4391)">
          <path
             id="path52492"
             style="stroke-width:5.28378"
             inkscape:transform-center-x="-6.3087024"
             inkscape:transform-center-y="-2.5512835"
             transform="matrix(0.9375,0,0,0.9375,92.593894,71.478376)"
             d="m 539.50266,442.80217 -35.82748,-99.86847 -76.46239,74.26874 83.90926,-64.935 -94.26196,-49.76976 87.68625,59.73643 18.2053,-105.02814 -29.71618,101.85415 105.51345,-15.14121 -106.05185,3.21289 z" />
          <path
             id="path52905"
             style="stroke-width:5.28378"
             inkscape:transform-center-x="-0.53200018"
             inkscape:transform-center-y="8.2631184"
             transform="matrix(0.86872366,0.35245632,-0.35245632,0.86872366,248.10398,-82.459401)"
             d="m 539.50266,442.80217 -35.82748,-99.86847 -76.46239,74.26874 83.90926,-64.935 -94.26196,-49.76976 87.68625,59.73643 18.2053,-105.02814 -29.71618,101.85415 105.51345,-15.14121 -106.05185,3.21289 z" />
          <path
             id="path52987"
             style="stroke-width:5.28378"
             inkscape:transform-center-x="4.6730079"
             inkscape:transform-center-y="-4.2066349"
             transform="matrix(0.6066069,0.71479669,-0.71479669,0.6066069,506.98874,-165.9385)"
             d="m 539.50266,442.80217 -35.82748,-99.86847 -76.46239,74.26874 83.90926,-64.935 -94.26196,-49.76976 87.68625,59.73643 18.2053,-105.02814 -29.71618,101.85415 105.51345,-15.14121 -106.05185,3.21289 z" />
        </g>
        <g
           id="g52192"
           transform="matrix(0.71624504,0,0,0.69877908,116.51107,74.048279)">
          <g
             id="g1550"
             transform="matrix(0.19294671,0,0,0.20657925,221.1239,174.41476)">
            <path
               inkscape:connector-curvature="0"
               id="path51842"
               d="m 324.87366,229.84814 c -65.98567,0 -119.57843,55.66089 -119.57843,124.19308 0,68.88034 53.59276,124.54121 119.57843,124.54121 h 106.18037 c 65.98653,0 119.91407,-55.66087 119.91407,-124.54121 0,-68.53219 -53.92754,-124.19308 -119.91407,-124.19308 z"
               style="fill:#008000;fill-opacity:1;fill-rule:evenodd;stroke:none" />
            <path
               inkscape:connector-curvature="0"
               id="path51839"
               d="m 705.38233,467.10256 c 0,-68.18453 -52.92451,-123.1496 -118.24108,-123.1496 h -2.67902 c -65.6509,0 -118.57113,54.96507 -118.57113,123.1496 v 93.23184 c 0,68.18438 52.92023,123.15055 118.57113,123.15055 h 2.67902 c 65.31657,0 118.24108,-54.96617 118.24108,-123.15055 z"
               style="fill:#008000;fill-opacity:1;fill-rule:evenodd;stroke:none" />
            <path
               inkscape:connector-curvature="0"
               id="path51836"
               d="m 286.68933,467.10256 c 0,-68.18453 -52.9228,-123.1496 -118.57371,-123.1496 h -2.34467 c -65.65091,0 -118.5737,54.96507 -118.5737,123.1496 v 93.23184 c 0,68.18438 52.92279,123.15055 118.5737,123.15055 h 2.34467 c 65.65091,0 118.57371,-54.96617 118.57371,-123.15055 z"
               style="fill:#008000;fill-opacity:1;fill-rule:evenodd;stroke:none" />
            <path
               inkscape:connector-curvature="0"
               id="path51833"
               d="m 378.13166,270.54999 c -95.46215,0 -172.83643,137.76051 -172.83643,307.87401 0,170.1113 77.37428,307.87353 172.83643,307.87353 95.46216,0 172.83644,-137.76223 172.83644,-307.87353 0,-170.1135 -77.37428,-307.87401 -172.83644,-307.87401 z"
               style="fill:#008000;fill-opacity:1;fill-rule:evenodd;stroke:none" />
            <path
               inkscape:connector-curvature="0"
               id="path51830"
               d="m 259.55796,343.95296 c -29.8108,0 -54.26273,25.39496 -54.26273,56.70434 v 226.12173 c 0,31.30938 24.45193,56.70592 54.26273,56.70592 h 236.81392 c 30.14215,0 54.59622,-25.39654 54.59622,-56.70592 V 400.6573 c 0,-31.30938 -24.45407,-56.70434 -54.59622,-56.70434 z"
               style="fill:#008000;fill-opacity:1;fill-rule:evenodd;stroke:none" />
            <path
               inkscape:connector-curvature="0"
               id="path51827"
               d="m 297.07276,255.59126 c -23.78194,0 -43.20889,20.17716 -43.20889,44.87649 v 182.98499 c 0,25.04746 19.42695,44.87649 43.20889,44.87649 h 172.83472 c 23.78109,0 43.21148,-19.82903 43.21148,-44.87649 V 300.46775 c 0,-24.69933 -19.43039,-44.87649 -43.21148,-44.87649 z"
               style="fill:#008000;fill-opacity:1;fill-rule:evenodd;stroke:none" />
            <path
               inkscape:connector-curvature="0"
               id="path51824"
               d="m 153.0424,391.96032 c -23.78152,0 -43.20889,19.82935 -43.20889,44.87634 v 182.98498 c 0,24.69933 19.42737,44.8765 43.20889,44.8765 h 172.83643 c 23.78152,0 43.2089,-20.17717 43.2089,-44.8765 V 436.83666 c 0,-25.04699 -19.42738,-44.87634 -43.2089,-44.87634 z"
               style="fill:#008000;fill-opacity:1;fill-rule:evenodd;stroke:none" />
            <path
               inkscape:connector-curvature="0"
               id="path51821"
               d="m 400.57324,389.17743 c -23.78152,0 -43.20889,20.17701 -43.20889,44.87633 v 182.98467 c 0,25.04747 19.42737,44.87728 43.20889,44.87728 h 172.8343 c 23.78538,0 43.21146,-19.82981 43.21146,-44.87728 V 434.05376 c 0,-24.69932 -19.42608,-44.87633 -43.21146,-44.87633 z"
               style="fill:#008000;fill-opacity:1;fill-rule:evenodd;stroke:none" />
          </g>
          <g
             id="g2180"
             transform="matrix(0.1778222,0,0,0.18932946,226.62885,182.94489)"
             style="fill:#ffffff">
            <path
               inkscape:connector-curvature="0"
               id="path51818"
               d="m 324.87366,229.84814 c -65.98567,0 -119.57843,55.66089 -119.57843,124.19308 0,68.88034 53.59276,124.54121 119.57843,124.54121 h 106.18037 c 65.98653,0 119.91407,-55.66087 119.91407,-124.54121 0,-68.53219 -53.92754,-124.19308 -119.91407,-124.19308 z"
               style="fill:#ffffff;fill-opacity:1;fill-rule:evenodd;stroke:none" />
            <path
               inkscape:connector-curvature="0"
               id="path51815"
               d="m 705.38233,467.10256 c 0,-68.18453 -52.92451,-123.1496 -118.24108,-123.1496 h -2.67902 c -65.6509,0 -118.57113,54.96507 -118.57113,123.1496 v 93.23184 c 0,68.18438 52.92023,123.15055 118.57113,123.15055 h 2.67902 c 65.31657,0 118.24108,-54.96617 118.24108,-123.15055 z"
               style="fill:#ffffff;fill-opacity:1;fill-rule:evenodd;stroke:none" />
            <path
               inkscape:connector-curvature="0"
               id="path51812"
               d="m 286.68933,467.10256 c 0,-68.18453 -52.9228,-123.1496 -118.57371,-123.1496 h -2.34467 c -65.65091,0 -118.5737,54.96507 -118.5737,123.1496 v 93.23184 c 0,68.18438 52.92279,123.15055 118.5737,123.15055 h 2.34467 c 65.65091,0 118.57371,-54.96617 118.57371,-123.15055 z"
               style="fill:#ffffff;fill-opacity:1;fill-rule:evenodd;stroke:none" />
            <path
               inkscape:connector-curvature="0"
               id="path51809"
               d="m 378.13166,270.54999 c -95.46215,0 -172.83643,137.76051 -172.83643,307.87401 0,170.1113 77.37428,307.87353 172.83643,307.87353 95.46216,0 172.83644,-137.76223 172.83644,-307.87353 0,-170.1135 -77.37428,-307.87401 -172.83644,-307.87401 z"
               style="fill:#ffffff;fill-opacity:1;fill-rule:evenodd;stroke:none" />
            <path
               inkscape:connector-curvature="0"
               id="path51806"
               d="m 259.55796,343.95296 c -29.8108,0 -54.26273,25.39496 -54.26273,56.70434 v 226.12173 c 0,31.30938 24.45193,56.70592 54.26273,56.70592 h 236.81392 c 30.14215,0 54.59622,-25.39654 54.59622,-56.70592 V 400.6573 c 0,-31.30938 -24.45407,-56.70434 -54.59622,-56.70434 z"
               style="fill:#ffffff;fill-opacity:1;fill-rule:evenodd;stroke:none" />
            <path
               inkscape:connector-curvature="0"
               id="path51803"
               d="m 297.07276,255.59126 c -23.78194,0 -43.20889,20.17716 -43.20889,44.87649 v 182.98499 c 0,25.04746 19.42695,44.87649 43.20889,44.87649 h 172.83472 c 23.78109,0 43.21148,-19.82903 43.21148,-44.87649 V 300.46775 c 0,-24.69933 -19.43039,-44.87649 -43.21148,-44.87649 z"
               style="fill:#ffffff;fill-opacity:1;fill-rule:evenodd;stroke:none" />
            <path
               inkscape:connector-curvature="0"
               id="path51800"
               d="m 153.0424,391.96032 c -23.78152,0 -43.20889,19.82935 -43.20889,44.87634 v 182.98498 c 0,24.69933 19.42737,44.8765 43.20889,44.8765 h 172.83643 c 23.78152,0 43.2089,-20.17717 43.2089,-44.8765 V 436.83666 c 0,-25.04699 -19.42738,-44.87634 -43.2089,-44.87634 z"
               style="fill:#ffffff;fill-opacity:1;fill-rule:evenodd;stroke:none" />
            <path
               inkscape:connector-curvature="0"
               id="path51797"
               d="m 400.57324,389.17743 c -23.78152,0 -43.20889,20.17701 -43.20889,44.87633 v 182.98467 c 0,25.04747 19.42737,44.87728 43.20889,44.87728 h 172.8343 c 23.78538,0 43.21146,-19.82981 43.21146,-44.87728 V 434.05376 c 0,-24.69932 -19.42608,-44.87633 -43.21146,-44.87633 z"
               style="fill:#ffffff;fill-opacity:1;fill-rule:evenodd;stroke:none" />
          </g>
          <g
             id="g52145"
             transform="matrix(0.16770799,0,0,0.17434559,230.61923,190.0943)"
             style="fill:#008000">
            <path
               inkscape:connector-curvature="0"
               id="path52129"
               d="m 324.87366,229.84814 c -65.98567,0 -119.57843,55.66089 -119.57843,124.19308 0,68.88034 53.59276,124.54121 119.57843,124.54121 h 106.18037 c 65.98653,0 119.91407,-55.66087 119.91407,-124.54121 0,-68.53219 -53.92754,-124.19308 -119.91407,-124.19308 z"
               style="fill:#008000;fill-opacity:1;fill-rule:evenodd;stroke:none" />
            <path
               inkscape:connector-curvature="0"
               id="path52131"
               d="m 705.38233,467.10256 c 0,-68.18453 -52.92451,-123.1496 -118.24108,-123.1496 h -2.67902 c -65.6509,0 -118.57113,54.96507 -118.57113,123.1496 v 93.23184 c 0,68.18438 52.92023,123.15055 118.57113,123.15055 h 2.67902 c 65.31657,0 118.24108,-54.96617 118.24108,-123.15055 z"
               style="fill:#008000;fill-opacity:1;fill-rule:evenodd;stroke:none" />
            <path
               inkscape:connector-curvature="0"
               id="path52133"
               d="m 286.68933,467.10256 c 0,-68.18453 -52.9228,-123.1496 -118.57371,-123.1496 h -2.34467 c -65.65091,0 -118.5737,54.96507 -118.5737,123.1496 v 93.23184 c 0,68.18438 52.92279,123.15055 118.5737,123.15055 h 2.34467 c 65.65091,0 118.57371,-54.96617 118.57371,-123.15055 z"
               style="fill:#008000;fill-opacity:1;fill-rule:evenodd;stroke:none" />
            <path
               inkscape:connector-curvature="0"
               id="path52135"
               d="m 378.13166,270.54999 c -95.46215,0 -172.83643,137.76051 -172.83643,307.87401 0,170.1113 77.37428,307.87353 172.83643,307.87353 95.46216,0 172.83644,-137.76223 172.83644,-307.87353 0,-170.1135 -77.37428,-307.87401 -172.83644,-307.87401 z"
               style="fill:#008000;fill-opacity:1;fill-rule:evenodd;stroke:none" />
            <path
               inkscape:connector-curvature="0"
               id="path52137"
               d="m 259.55796,343.95296 c -29.8108,0 -54.26273,25.39496 -54.26273,56.70434 v 226.12173 c 0,31.30938 24.45193,56.70592 54.26273,56.70592 h 236.81392 c 30.14215,0 54.59622,-25.39654 54.59622,-56.70592 V 400.6573 c 0,-31.30938 -24.45407,-56.70434 -54.59622,-56.70434 z"
               style="fill:#008000;fill-opacity:1;fill-rule:evenodd;stroke:none" />
            <path
               inkscape:connector-curvature="0"
               id="path52139"
               d="m 297.07276,255.59126 c -23.78194,0 -43.20889,20.17716 -43.20889,44.87649 v 182.98499 c 0,25.04746 19.42695,44.87649 43.20889,44.87649 h 172.83472 c 23.78109,0 43.21148,-19.82903 43.21148,-44.87649 V 300.46775 c 0,-24.69933 -19.43039,-44.87649 -43.21148,-44.87649 z"
               style="fill:#008000;fill-opacity:1;fill-rule:evenodd;stroke:none" />
            <path
               inkscape:connector-curvature="0"
               id="path52141"
               d="m 153.0424,391.96032 c -23.78152,0 -43.20889,19.82935 -43.20889,44.87634 v 182.98498 c 0,24.69933 19.42737,44.8765 43.20889,44.8765 h 172.83643 c 23.78152,0 43.2089,-20.17717 43.2089,-44.8765 V 436.83666 c 0,-25.04699 -19.42738,-44.87634 -43.2089,-44.87634 z"
               style="fill:#008000;fill-opacity:1;fill-rule:evenodd;stroke:none" />
            <path
               inkscape:connector-curvature="0"
               id="path52143"
               d="m 400.57324,389.17743 c -23.78152,0 -43.20889,20.17701 -43.20889,44.87633 v 182.98467 c 0,25.04747 19.42737,44.87728 43.20889,44.87728 h 172.8343 c 23.78538,0 43.21146,-19.82981 43.21146,-44.87728 V 434.05376 c 0,-24.69932 -19.42608,-44.87633 -43.21146,-44.87633 z"
               style="fill:#008000;fill-opacity:1;fill-rule:evenodd;stroke:none" />
          </g>
        </g>
        <g
           aria-label="3758"
           id="text58846"
           style="font-size:26.3588px;line-height:1.25;letter-spacing:0px;word-spacing:0px;fill:#ffffff;stroke-width:0.308893">
          <path
             d="m 304.79543,268.83226 q 1.86622,0.39899 2.90873,1.6603 1.05539,1.26131 1.05539,3.11466 0,2.84439 -1.95632,4.40172 -1.95632,1.55733 -5.56006,1.55733 -1.20983,0 -2.49688,-0.24454 -1.27418,-0.23167 -2.63845,-0.70788 v -2.50975 q 1.08112,0.63066 2.36817,0.95242 1.28705,0.32176 2.68994,0.32176 2.44539,0 3.71957,-0.96529 1.28705,-0.96528 1.28705,-2.80577 0,-1.6989 -1.19695,-2.65132 -1.18409,-0.96529 -3.30772,-0.96529 h -2.23947 v -2.1365 h 2.34243 q 1.91771,0 2.93448,-0.75936 1.01677,-0.77223 1.01677,-2.21373 0,-1.48011 -1.05539,-2.26521 -1.04251,-0.79797 -2.99882,-0.79797 -1.06826,0 -2.29095,0.23167 -1.2227,0.23167 -2.68994,0.72075 v -2.3167 q 1.48011,-0.41185 2.76716,-0.61778 1.29992,-0.20593 2.44539,-0.20593 2.96022,0 4.68487,1.3514 1.72465,1.33854 1.72465,3.62949 0,1.59594 -0.91381,2.7028 -0.9138,1.094 -2.59984,1.51872 z"
             id="path63329" />
          <path
             d="m 313.03255,259.97735 h 12.35569 v 1.10687 l -6.97581,18.1088 h -2.71568 l 6.56396,-17.02768 h -9.22816 z"
             id="path63331" />
          <path
             d="m 330.48496,259.97735 h 10.20631 v 2.18799 h -7.82526 v 4.71061 q 0.5663,-0.19306 1.1326,-0.28315 0.5663,-0.10297 1.13261,-0.10297 3.21762,0 5.09672,1.76326 1.87909,1.76326 1.87909,4.77496 0,3.10179 -1.93058,4.82644 -1.93057,1.71178 -5.44422,1.71178 -1.20983,0 -2.47114,-0.20593 -1.24844,-0.20593 -2.58697,-0.61778 v -2.61272 q 1.15835,0.63066 2.39391,0.93955 1.23557,0.30889 2.61272,0.30889 2.2266,0 3.52652,-1.17121 1.29992,-1.17122 1.29992,-3.17902 0,-2.0078 -1.29992,-3.17902 -1.29992,-1.17121 -3.52652,-1.17121 -1.04251,0 -2.08503,0.23167 -1.02964,0.23167 -2.11076,0.72075 z"
             id="path63333" />
          <path
             d="m 352.78955,270.06783 q -1.85335,0 -2.9216,0.99103 -1.05539,0.99103 -1.05539,2.72855 0,1.73752 1.05539,2.72855 1.06825,0.99103 2.9216,0.99103 1.85335,0 2.92161,-0.99103 1.06825,-1.0039 1.06825,-2.72855 0,-1.73752 -1.06825,-2.72855 -1.05538,-0.99103 -2.92161,-0.99103 z m -2.59984,-1.10686 q -1.67317,-0.41186 -2.61271,-1.55733 -0.92668,-1.14548 -0.92668,-2.7929 0,-2.30382 1.63455,-3.64236 1.64743,-1.33853 4.50468,-1.33853 2.87012,0 4.50468,1.33853 1.63455,1.33854 1.63455,3.64236 0,1.64742 -0.93954,2.7929 -0.92668,1.14547 -2.58698,1.55733 1.8791,0.4376 2.92161,1.71178 1.05538,1.27418 1.05538,3.11466 0,2.7929 -1.71178,4.28588 -1.6989,1.49298 -4.87792,1.49298 -3.17901,0 -4.89079,-1.49298 -1.69891,-1.49298 -1.69891,-4.28588 0,-1.84048 1.05538,-3.11466 1.05538,-1.27418 2.93448,-1.71178 z m -0.95242,-4.10569 q 0,1.49298 0.92668,2.32956 0.93954,0.83658 2.62558,0.83658 1.67317,0 2.61271,-0.83658 0.95242,-0.83658 0.95242,-2.32956 0,-1.49298 -0.95242,-2.32956 -0.93954,-0.83659 -2.61271,-0.83659 -1.68604,0 -2.62558,0.83659 -0.92668,0.83658 -0.92668,2.32956 z"
             id="path63335" />
        </g>
      </g>
      <g
         aria-label="Girl"
         id="text28326"
         style="font-size:44.5392px;line-height:1.25;letter-spacing:0px;word-spacing:0px;stroke-width:0.521944">
        <path
           d="m 111.56663,211.77121 q 0.73942,0.0435 1.13088,0.39146 0.39146,0.30446 0.52194,0.78291 0.17398,0.43495 0.13049,0.9569 -0.0435,0.47845 -0.17398,0.9134 l -1.21787,13.44005 q 0,0.43495 -0.34796,0.78292 -0.34797,0.34796 -0.78292,0.39145 -0.39146,0.087 -0.78291,-0.26097 -0.39146,-0.30446 -0.52195,-1.17437 l 0.52195,-5.69789 q -1.13088,0.86991 -2.52273,1.69632 -1.39185,0.78292 -2.91419,1.39185 -1.52233,0.60894 -3.08817,1.00039 -1.522331,0.34797 -2.957677,0.30447 -3.871082,0.0435 -7.04624,-1.00039 -3.175158,-1.08738 -5.48041,-3.04467 -2.261756,-1.95729 -3.566615,-4.6975 -1.261364,-2.7837 -1.348355,-6.13284 0.304467,-3.91457 1.826803,-7.04624 1.565832,-3.17516 4.045064,-5.43691 2.479233,-2.26176 5.697886,-3.52312 3.262149,-1.26137 6.95925,-1.39185 2.435734,-0.0435 4.393024,0.69592 2.00079,0.69593 3.43613,1.82681 1.43535,1.13087 2.26176,2.47923 0.8699,1.30486 1.00039,2.47923 -0.0435,0.73942 -0.43495,1.04389 -0.39146,0.26097 -0.86991,0.21748 -0.47845,-0.0435 -0.9134,-0.34797 -0.43495,-0.30446 -0.52194,-0.69592 -0.17399,-0.65243 -0.86991,-1.47884 -0.69593,-0.86991 -1.78331,-1.65282 -1.08738,-0.78292 -2.47923,-1.34836 -1.39185,-0.60893 -2.957682,-0.78291 -2.827195,-0.26098 -5.610895,0.82641 -2.7837,1.08738 -5.045456,3.13166 -2.218261,2.04428 -3.653607,4.87147 -1.39185,2.7837 -1.435345,5.95886 -0.173981,2.91419 0.956897,5.30643 1.130878,2.34875 3.131662,4.00157 2.000785,1.65282 4.567008,2.47923 2.609719,0.78292 5.349924,0.56544 1.043887,0 2.740204,-0.47845 1.73981,-0.52194 3.52312,-1.30486 1.78331,-0.78291 3.43613,-1.7833 1.65282,-1.04389 2.56622,-2.13128 l 0.34797,-3.95807 -7.78566,-0.17398 q -0.52195,-0.43495 -0.60894,-0.82641 -0.087,-0.43495 0.0435,-0.73942 0.13048,-0.30447 0.39145,-0.47845 0.30447,-0.21748 0.52195,-0.21748 0.65243,0 1.78331,0 1.13087,-0.0435 2.34874,-0.0435 1.21787,-0.0435 2.34875,-0.0435 1.13088,-0.0435 1.73981,-0.0435 z"
           style="font-family:'Janda Silly Monkey';-inkscape-font-specification:'Janda Silly Monkey'"
           id="path68662" />
        <path
           d="m 119.74375,226.16816 q -0.56544,0.8699 -1.08738,1.00039 -0.52195,0.17398 -0.91341,0 -0.47844,-0.17398 -0.8699,-0.73942 l 0.13048,-21.70416 q 0,-0.56544 0.43496,-0.82641 0.43495,-0.30447 0.9134,-0.26098 0.52194,0 0.9569,0.39146 0.43495,0.34796 0.43495,1.00039 z m -1.47884,-26.09719 -2.65322,1.56583 q -0.65243,0 -0.65243,-0.60893 l 1.60933,-2.30526 -1.52233,-1.60932 q -0.21748,-0.13049 -0.26098,-0.30447 0,-0.17398 0.087,-0.34796 0.087,-0.17398 0.26098,-0.21748 0.17398,-0.087 0.39145,0.0435 l 1.82681,0.21747 1.21787,-1.95729 q 0.21747,-0.34796 0.60893,-0.26097 0.39146,0.087 0.39146,0.60894 l 0.30447,1.95729 2.17476,0.30446 q 0.39146,0 0.47845,0.13049 0.087,0.13048 0,0.34796 -0.0435,0.17398 -0.21748,0.34796 -0.13048,0.13049 -0.21747,0.13049 l -1.78331,0.78292 0.56544,2.47923 h 0.0435 q 0,0.0435 0,0.17398 0,0.13049 -0.0435,0.26097 0,0.13049 -0.13049,0.17398 -0.13048,0 -0.43495,-0.13048 z"
           style="font-family:'Janda Silly Monkey';-inkscape-font-specification:'Janda Silly Monkey'"
           id="path68664" />
        <path
           d="m 125.44164,198.46164 q 0.39145,-0.43495 0.82641,-0.65243 0.47845,-0.26097 0.8699,-0.26097 0.43496,0 0.69593,0.26097 0.30447,0.21748 0.34796,0.73942 l 0.0435,2.7837 q 2.34874,-1.39185 4.82798,-2.69671 2.52272,-1.30486 4.95846,-2.26175 2.47923,-1.00039 4.82798,-1.47884 2.39224,-0.52195 4.52351,-0.34797 2.69671,0.30447 4.00157,2.08778 1.30486,1.78331 0.86991,4.26254 -0.34796,1.69632 -1.43535,3.13166 -1.04388,1.43535 -2.34874,2.60972 -1.30486,1.13088 -2.65322,2.00079 -1.30486,0.8699 -2.08777,1.47884 l 4.74099,17.18064 q -0.087,0.39146 -0.47845,0.65243 -0.39146,0.26098 -0.86991,0.34797 -0.47845,0.087 -0.9134,-0.0435 -0.43495,-0.087 -0.56544,-0.47845 l -4.43652,-16.61521 q -3.17516,1.47884 -5.39342,2.43574 -2.17476,0.9569 -3.61011,1.56583 -1.43535,0.56544 -2.21826,0.86991 -0.73942,0.30447 -1.13088,0.43495 -0.34796,0.13049 -0.43495,0.17398 -0.087,0.0435 -0.087,0.17398 l 0.34796,11.83073 q -0.087,0.39146 -0.47845,0.56544 -0.39146,0.21747 -0.86991,0.26097 -0.43495,0.0435 -0.82641,-0.087 -0.34796,-0.13049 -0.39145,-0.39146 z m 2.87069,14.78841 q 0.8699,-0.30447 2.56622,-0.86991 1.73981,-0.60893 3.82759,-1.43534 2.08777,-0.82641 4.34953,-1.8703 2.26176,-1.08738 4.26254,-2.34875 2.04428,-1.30486 3.61011,-2.7837 1.56583,-1.52233 2.26176,-3.21865 0.34796,-1.39185 -0.17398,-2.47923 -0.47845,-1.08739 -1.73982,-1.26137 -1.8703,-0.26097 -4.21904,0.39146 -2.30525,0.60893 -4.87148,1.78331 -2.52273,1.13088 -5.08895,2.65321 -2.56622,1.52234 -4.87147,3.00118 z"
           style="font-family:'Janda Silly Monkey';-inkscape-font-specification:'Janda Silly Monkey'"
           id="path68666" />
        <path
           d="m 157.45418,232.301 q -0.73942,-0.0435 -1.13088,-0.39146 -0.39145,-0.30447 -0.56544,-0.78292 -0.13048,-0.43495 -0.087,-0.95689 0.0435,-0.47845 0.17399,-0.91341 l -0.21748,-35.2312 q 0,-0.43495 0.34796,-0.82641 0.39146,-0.39146 0.82641,-0.52194 0.47845,-0.13049 0.86991,0.13048 0.43495,0.26097 0.56544,1.13088 v 35.79664 l 3.78409,0.087 q 0.52194,0.43496 0.56544,0.86991 0.0435,0.47845 -0.17398,0.82641 -0.21748,0.34796 -0.56544,0.56544 -0.30447,0.26097 -0.52195,0.26097 -0.65243,0 -1.13087,0 -0.43496,0 -0.86991,-0.0435 -0.39146,0 -0.82641,0 -0.43495,0 -1.04389,0 z"
           style="font-family:'Janda Silly Monkey';-inkscape-font-specification:'Janda Silly Monkey'"
           id="path68668" />
      </g>
      <g
         aria-label="Scouts"
         id="text64362"
         style="font-size:53.527px;line-height:1.25;letter-spacing:0px;word-spacing:0px;stroke-width:0.62727">
        <path
           d="m 112.35722,232.30688 q 0.48174,0.42822 0.48174,0.85643 0,0.85643 -1.12406,0.85643 -0.69585,-0.32116 -1.1776,-0.53527 -0.42821,-0.2141 -0.85643,-0.32116 -0.37469,-0.16058 -0.8029,-0.21411 -0.42822,-0.10705 -1.12407,-0.10705 -0.90996,0 -2.03403,0.42822 -1.12406,0.37468 -2.14108,1.07054 -1.01701,0.64232 -1.76639,1.55228 -0.69585,0.90996 -0.74938,1.87344 0,1.12407 0.69586,2.19461 0.74937,1.07054 1.87344,2.19461 1.12407,1.07054 2.51577,2.24813 1.3917,1.1776 2.72988,2.51577 1.3917,1.33818 2.51577,2.89046 1.17759,1.55228 1.81991,3.42573 2.03403,0.58879 3.85395,1.28464 1.81992,0.64233 3.31867,1.23113 0.48174,0.32116 0.48174,0.85643 0,0.8029 -1.12406,0.8029 -1.3917,-0.48174 -2.83693,-0.90996 -1.44523,-0.42821 -2.83693,-0.85643 0,0.42822 0.0535,0.96349 0.10706,0.48174 0.10706,0.90996 0,2.46224 -1.12407,4.22863 -1.07054,1.71286 -2.94399,2.7834 -1.81991,1.12407 -4.22863,1.60581 -2.35519,0.53527 -4.92448,0.53527 -2.141083,0 -4.014528,-0.48174 -1.873445,-0.42822 -3.318674,-1.33817 -1.391702,-0.85644 -2.194607,-2.19461 -0.802905,-1.33818 -0.802905,-3.10457 0,-2.03402 0.856432,-3.63983 0.856432,-1.65934 2.301661,-2.78341 1.445229,-1.12406 3.318674,-1.71286 1.926972,-0.5888 4.014527,-0.5888 1.65934,0 3.42573,0.32116 1.76639,0.26764 4.01452,0.74938 -0.42821,-1.01701 -1.3917,-2.14108 -0.96349,-1.17759 -2.14108,-2.35519 -1.17759,-1.17759 -2.40872,-2.40871 -1.23112,-1.28465 -2.30166,-2.5693 -1.01701,-1.28465 -1.659334,-2.56929 -0.642324,-1.33818 -0.642324,-2.67635 0,-1.28465 0.695851,-2.40872 0.695851,-1.12407 1.873447,-1.9805 1.17759,-0.90996 2.62282,-1.3917 1.49876,-0.53527 3.05104,-0.53527 2.99751,0 6.04855,1.44523 z m -3.47925,29.27927 q 1.07054,-0.69585 1.49875,-1.71287 0.42822,-1.07054 0.42822,-2.1946 0,-0.74938 -0.21411,-1.49876 -0.16058,-0.8029 -0.42822,-1.49875 L 108.5568,254.36 q -1.49875,-0.26763 -3.10456,-0.42821 -1.60581,-0.21411 -3.26515,-0.21411 -0.85643,0 -2.30166,0.21411 -1.445229,0.21411 -2.836931,0.8029 -1.391702,0.5888 -2.408715,1.60581 -1.017013,1.01702 -1.017013,2.67635 0,1.28465 0.642324,2.19461 0.642324,0.90996 1.659337,1.49876 1.07054,0.53527 2.355188,0.74937 1.284648,0.26764 2.5693,0.26764 2.30166,0 4.44274,-0.5888 2.1946,-0.64232 3.58631,-1.55228 z"
           style="font-family:'Cheddar Jack';-inkscape-font-specification:'Cheddar Jack'"
           id="path68671" />
        <path
           d="m 127.55888,251.46955 q 0,0.42821 -0.26764,0.69585 -0.26763,0.26763 -0.53527,0.26763 -0.5888,0 -0.90996,-0.5888 l -0.21411,-2.56929 h -0.58879 q -0.80291,0.48174 -1.60581,1.49875 -0.74938,1.01702 -1.39171,2.30167 -0.64232,1.23112 -1.07054,2.56929 -0.37468,1.28465 -0.37468,2.40872 0,0.16058 0.0535,0.58879 0.0535,0.37469 0.16058,0.80291 0.16058,0.42821 0.42822,0.8029 0.26763,0.32117 0.69585,0.37469 0.64232,-0.10705 1.49876,-0.64232 0.85643,-0.5888 1.65933,-1.23112 0.85644,-0.64233 1.60581,-1.12407 0.74938,-0.53527 1.1776,-0.53527 0.90996,0 0.90996,0.85643 0,0.32116 -0.26764,0.69585 -0.69585,0.5888 -1.49875,1.44523 -0.74938,0.85643 -1.60581,1.65934 -0.80291,0.74938 -1.7664,1.28465 -0.90995,0.53527 -1.87344,0.53527 -1.01701,0 -1.87345,-0.48175 -0.8029,-0.53527 -1.3917,-1.28464 -0.58879,-0.80291 -0.90996,-1.71287 -0.32116,-0.96348 -0.32116,-1.87344 0,-1.76639 0.53527,-3.69337 0.5888,-1.98049 1.60581,-3.63983 1.01701,-1.71287 2.40872,-2.78341 1.3917,-1.12406 2.99751,-1.12406 1.23112,0 1.9805,0.85643 0.8029,0.8029 0.8029,2.46224 0,0.26764 0,0.5888 0,0.26763 -0.0535,0.5888 z"
           style="font-family:'Cheddar Jack';-inkscape-font-specification:'Cheddar Jack'"
           id="path68673" />
        <path
           d="m 135.64131,250.88075 q 0,0.0535 0.0535,0.10705 2.35519,-1.07054 4.92448,-1.81992 2.62283,-0.74937 5.08507,-1.33817 1.01701,0 1.01701,0.85643 0,0.48174 -0.53527,0.80291 -1.71286,0.69585 -3.3722,1.44523 -1.65934,0.69585 -3.31867,1.49875 0.48174,0.80291 0.48174,1.81992 0,0.8029 -0.37469,2.08755 -0.37469,1.23112 -1.07054,2.46224 -0.64232,1.23113 -1.65934,2.30167 -1.01701,1.01701 -2.30166,1.49875 -0.53527,0.21411 -1.17759,0.21411 -0.5888,0 -1.23112,0.10705 -0.90996,-0.10705 -1.71287,-1.12406 -0.74937,-1.07054 -0.74937,-2.51577 0,-1.12407 0.48174,-2.72988 0.53527,-1.65934 1.28465,-3.15809 0.74938,-1.55229 1.55228,-2.62283 0.85643,-1.12406 1.55228,-1.12406 0.48175,0 0.80291,0.48174 l 0.26763,0.69585 z m -0.42821,3.26515 q -0.90996,-0.48175 -1.07054,-1.23113 -0.74938,1.55229 -1.01702,3.31868 -0.26763,1.71286 -0.26763,3.3722 0.85643,-0.10705 1.55228,-0.85643 0.69585,-0.80291 1.1776,-1.71287 0.48174,-0.90996 0.74937,-1.71286 0.32117,-0.80291 0.32117,-0.90996 v -0.10705 q -0.32117,-0.10706 -0.74938,-0.0535 -0.42822,0 -0.69585,-0.10705 z"
           style="font-family:'Cheddar Jack';-inkscape-font-specification:'Cheddar Jack'"
           id="path68675" />
        <path
           d="m 145.75786,247.56207 q 0.32116,-0.53527 0.8029,-0.53527 0.32116,0 0.5888,0.26764 0.26763,0.21411 0.26763,0.64232 0,0.10706 -0.10705,0.42822 -0.64232,1.9805 -1.17759,4.7639 -0.53527,2.72988 -0.53527,5.29918 0,1.87344 0.37469,3.21162 0.48174,-0.26764 0.85643,-0.53527 v -0.0535 q 0.48174,-0.74938 1.23112,-1.44523 0.74938,-0.69585 1.23112,-1.44523 0.53527,-0.8029 1.12407,-1.9805 0.58879,-1.23112 1.12406,-2.30166 0.5888,-1.12407 1.1776,-1.87344 0.58879,-0.80291 1.23112,-0.80291 0.5888,0 1.01701,0.48174 0.42822,0.42822 0.42822,1.1776 0,0.90996 -0.26764,2.30166 -0.21411,1.3917 -0.21411,2.94398 0,0.37469 0,0.96349 0.0535,0.5888 0.16059,1.17759 0.10705,0.5888 0.26763,1.01702 0.16058,0.42821 0.42822,0.42821 0.37469,0 0.90996,-0.37469 0.53527,-0.42821 1.01701,-0.42821 0.26763,0 0.37469,0.32116 0.16058,0.26763 0.16058,0.37469 0,0.48174 -0.37469,0.85643 -0.37469,0.37469 -0.85643,0.69585 -0.48175,0.26764 -0.96349,0.37469 -0.48174,0.16058 -0.74938,0.16058 -0.74937,0 -1.28464,-0.48174 -0.48175,-0.53527 -0.80291,-1.23112 -0.32116,-0.69585 -0.48174,-1.3917 -0.16058,-0.74938 -0.26764,-1.12407 -0.48174,0.96348 -1.28465,1.9805 -0.74937,0.96348 -1.65933,1.76639 -0.85643,0.8029 -1.87345,1.28465 -0.96348,0.53527 -1.87344,0.53527 -0.53527,0 -1.12407,-0.26764 -0.53527,-0.21411 -1.01701,-0.8029 -0.42822,-0.53527 -0.74938,-1.44523 -0.26764,-0.90996 -0.26764,-2.24814 0,-1.33817 0.26764,-3.15809 0.32116,-1.81992 0.8029,-3.63984 0.48175,-1.87344 1.01702,-3.47925 0.58879,-1.60581 1.07054,-2.40872 z"
           style="font-family:'Cheddar Jack';-inkscape-font-specification:'Cheddar Jack'"
           id="path68677" />
        <path
           d="m 159.83536,255.37702 q 0.16058,-1.76639 0.37469,-3.42573 0.26763,-1.71287 0.64232,-3.42573 -1.92697,0.42822 -2.7834,0.74938 -0.80291,0.32116 -1.23112,0.32116 -0.64233,0 -0.64233,-0.85643 0,-0.80291 1.01701,-1.49876 1.07054,-0.74938 2.46225,-1.33817 0.85643,-0.74938 1.33817,-1.33818 0.48174,-0.64232 0.80291,-1.28465 0.32116,-0.69585 0.53527,-1.49875 0.2141,-0.80291 0.53527,-1.92697 0.16058,-0.48175 0.37469,-1.55229 0.26763,-1.12406 0.64232,-2.24813 0.42822,-1.12407 1.01701,-1.9805 0.5888,-0.85643 1.44523,-0.85643 0.85643,0 0.85643,0.8029 0,0.42822 -0.16058,1.23112 -0.16058,0.74938 -0.48174,1.9805 -0.26764,1.23112 -0.69585,3.05104 -0.37469,1.76639 -0.85643,4.22864 0.53527,0 1.01701,0 0.48174,-0.0535 0.96349,-0.0535 0.58879,0 1.3917,0 0.85643,0 1.60581,0.10705 0.8029,0.0535 1.33817,0.26764 0.53527,0.21411 0.53527,0.69585 0,0.48174 -0.96348,0.8029 -0.90996,0.32117 -2.19461,0.5888 -1.23112,0.26764 -2.51577,0.53527 -1.28465,0.21411 -1.9805,0.48174 -0.5888,2.5693 -1.01701,5.51328 -0.42822,2.89046 -0.42822,5.45976 0,0.32116 0,0.85643 0.0535,0.53527 0.0535,1.12407 0.0535,0.53527 0.10705,0.96348 0.10706,0.37469 0.26764,0.37469 0.5888,0 2.40871,-1.71286 1.87345,-1.76639 3.961,-5.03154 0.26764,-0.26763 0.64233,-0.26763 0.37468,0 0.64232,0.26763 0.26763,0.21411 0.26763,0.5888 0,0.26763 -0.26763,0.64232 -0.74938,1.44523 -1.81992,2.99751 -1.01701,1.55229 -2.14108,2.78341 -1.12407,1.23112 -2.24813,2.03402 -1.12407,0.80291 -2.08756,0.80291 -0.90995,0 -1.49875,-0.64233 -0.53527,-0.64232 -0.90996,-1.55228 -0.32116,-0.90996 -0.48174,-1.92697 -0.10706,-1.01701 -0.10706,-1.81992 0,-1.07054 0.0535,-2.08755 0.10705,-1.01701 0.21411,-1.92697 z"
           style="font-family:'Cheddar Jack';-inkscape-font-specification:'Cheddar Jack'"
           id="path68679" />
        <path
           d="m 170.70118,257.25046 q -0.32117,0.42822 -0.74938,0.42822 -0.37469,0 -0.64233,-0.26764 -0.2141,-0.26763 -0.2141,-0.69585 v -0.26763 q 0.64232,-1.44523 1.71286,-2.99752 1.07054,-1.60581 2.19461,-3.05103 1.12406,-1.44523 2.08755,-2.67635 0.96349,-1.23113 1.3917,-2.03403 0,-0.53527 0.5888,-0.74938 0.64232,-0.21411 0.85643,-0.21411 0.64232,0 1.01701,0.42822 0.42822,0.42822 0.42822,1.28465 -0.74938,2.67635 -0.74938,5.29917 0,1.3917 0.26764,2.67635 0.26763,1.28465 0.64232,2.67635 1.49876,-0.74938 2.94399,-1.3917 1.49875,-0.64233 2.94398,-1.28465 0.32116,-0.10705 0.48174,-0.10705 0.42822,0 0.64233,0.26763 0.21411,0.26764 0.21411,0.5888 0,0.37469 -0.74938,0.90996 -0.74938,0.53527 -1.81992,1.12406 -1.01701,0.53527 -2.19461,1.12407 -1.17759,0.5888 -2.03402,1.12407 0,1.71286 -0.53527,2.94398 -0.48175,1.1776 -1.28465,1.92698 -0.74938,0.74937 -1.65934,1.07054 -0.90996,0.32116 -1.71286,0.32116 -1.23112,0 -2.03403,-0.69585 -0.8029,-0.64233 -0.8029,-1.71287 0,-0.64232 0.48174,-1.33817 0.53527,-0.69585 1.23112,-1.33818 0.74938,-0.64232 1.44523,-1.12406 0.74938,-0.48175 1.23112,-0.74938 -0.32116,-1.92697 -0.5888,-3.63984 -0.26763,-1.71286 -0.26763,-3.3722 -1.28465,1.28465 -2.5693,2.62282 -1.28465,1.33818 -2.1946,2.89046 z"
           style="font-family:'Cheddar Jack';-inkscape-font-specification:'Cheddar Jack'"
           id="path68681" />
      </g>
    </g>
  </g>
</svg>
